<svg width="477" height="451" viewBox="0 0 477 451" fill="none" xmlns="http://www.w3.org/2000/svg">
<path d="M79.947 119.469C80.9834 117.262 81.4457 114.828 81.2909 112.395C81.1362 109.961 80.3695 107.606 79.0618 105.547C77.7542 103.489 75.948 101.794 73.8107 100.619C71.6734 99.4448 69.2741 98.8291 66.8354 98.8291C64.3967 98.8291 61.9975 99.4448 59.8602 100.619C57.7229 101.794 55.9167 103.489 54.609 105.547C53.3014 107.606 52.5346 109.961 52.3799 112.395C52.2252 114.828 52.6874 117.262 53.7238 119.469H79.947Z" stroke="#263238" stroke-linecap="round" stroke-linejoin="round"/>
<path d="M114.503 119.47C115.546 117.26 116.013 114.823 115.862 112.384C115.71 109.945 114.945 107.584 113.637 105.521C112.329 103.457 110.52 101.757 108.38 100.579C106.239 99.4017 103.835 98.7842 101.391 98.7842C98.9481 98.7842 96.5443 99.4017 94.4035 100.579C92.2626 101.757 90.4542 103.457 89.1461 105.521C87.8379 107.584 87.0726 109.945 86.9212 112.384C86.7698 114.823 87.2371 117.26 88.2799 119.47H114.503Z" stroke="#263238" stroke-linecap="round" stroke-linejoin="round"/>
<path d="M149.046 119.469C150.082 117.262 150.544 114.828 150.39 112.395C150.235 109.961 149.468 107.606 148.161 105.547C146.853 103.489 145.047 101.794 142.909 100.619C140.772 99.4448 138.373 98.8291 135.934 98.8291C133.495 98.8291 131.096 99.4448 128.959 100.619C126.822 101.794 125.015 103.489 123.708 105.547C122.4 107.606 121.633 109.961 121.479 112.395C121.324 114.828 121.786 117.262 122.823 119.469H149.046Z" stroke="#263238" stroke-linecap="round" stroke-linejoin="round"/>
<path d="M183.588 119.469C184.625 117.262 185.087 114.828 184.932 112.395C184.778 109.961 184.011 107.606 182.703 105.547C181.396 103.489 179.589 101.794 177.452 100.619C175.315 99.4448 172.915 98.8291 170.477 98.8291C168.038 98.8291 165.639 99.4448 163.502 100.619C161.364 101.794 159.558 103.489 158.25 105.547C156.943 107.606 156.176 109.961 156.021 112.395C155.867 114.828 156.329 117.262 157.365 119.469H183.588Z" stroke="#263238" stroke-linecap="round" stroke-linejoin="round"/>
<path d="M218.144 119.47C219.184 117.26 219.648 114.824 219.495 112.386C219.342 109.949 218.575 107.59 217.267 105.528C215.958 103.467 214.15 101.769 212.01 100.592C209.87 99.4157 207.468 98.7988 205.026 98.7988C202.583 98.7988 200.181 99.4157 198.041 100.592C195.901 101.769 194.093 103.467 192.784 105.528C191.476 107.59 190.709 109.949 190.556 112.386C190.403 114.824 190.867 117.26 191.907 119.47H218.144Z" stroke="#263238" stroke-linecap="round" stroke-linejoin="round"/>
<path d="M252.687 119.469C253.723 117.262 254.185 114.828 254.031 112.395C253.876 109.961 253.109 107.606 251.801 105.547C250.494 103.489 248.688 101.794 246.55 100.619C244.413 99.4448 242.014 98.8291 239.575 98.8291C237.136 98.8291 234.737 99.4448 232.6 100.619C230.462 101.794 228.656 103.489 227.349 105.547C226.041 107.606 225.274 109.961 225.12 112.395C224.965 114.828 225.427 117.262 226.463 119.469H252.687Z" stroke="#263238" stroke-linecap="round" stroke-linejoin="round"/>
<path d="M287.229 119.469C288.266 117.262 288.728 114.828 288.573 112.395C288.418 109.961 287.652 107.606 286.344 105.547C285.036 103.489 283.23 101.794 281.093 100.619C278.955 99.4448 276.556 98.8291 274.118 98.8291C271.679 98.8291 269.28 99.4448 267.142 100.619C265.005 101.794 263.199 103.489 261.891 105.547C260.583 107.606 259.817 109.961 259.662 112.395C259.507 114.828 259.97 117.262 261.006 119.469H287.229Z" stroke="#263238" stroke-linecap="round" stroke-linejoin="round"/>
<path d="M321.772 119.469C322.808 117.262 323.27 114.828 323.116 112.395C322.961 109.961 322.194 107.606 320.887 105.547C319.579 103.489 317.773 101.794 315.635 100.619C313.498 99.4448 311.099 98.8291 308.66 98.8291C306.221 98.8291 303.822 99.4448 301.685 100.619C299.548 101.794 297.741 103.489 296.434 105.547C295.126 107.606 294.359 109.961 294.205 112.395C294.05 114.828 294.512 117.262 295.549 119.469H321.772Z" stroke="#263238" stroke-linecap="round" stroke-linejoin="round"/>
<path d="M356.328 119.469C357.256 117.504 357.73 115.354 357.714 113.18C357.698 111.007 357.193 108.864 356.237 106.912C355.28 104.96 353.897 103.248 352.189 101.904C350.48 100.559 348.492 99.6164 346.369 99.1452C344.247 98.674 342.046 98.6864 339.93 99.1817C337.813 99.6769 335.835 100.642 334.142 102.006C332.449 103.37 331.085 105.097 330.151 107.06C329.217 109.023 328.736 111.17 328.745 113.344C328.738 115.46 329.197 117.551 330.091 119.469H356.328Z" stroke="#263238" stroke-linecap="round" stroke-linejoin="round"/>
<path d="M390.87 119.469C391.906 117.262 392.369 114.828 392.214 112.395C392.059 109.961 391.292 107.606 389.985 105.547C388.677 103.489 386.871 101.794 384.734 100.619C382.596 99.4448 380.197 98.8291 377.758 98.8291C375.32 98.8291 372.92 99.4448 370.783 100.619C368.646 101.794 366.84 103.489 365.532 105.547C364.224 107.606 363.458 109.961 363.303 112.395C363.148 114.828 363.61 117.262 364.647 119.469H390.87Z" stroke="#263238" stroke-linecap="round" stroke-linejoin="round"/>
<path d="M425.413 119.469C426.449 117.262 426.911 114.828 426.757 112.395C426.602 109.961 425.835 107.606 424.527 105.547C423.22 103.489 421.414 101.794 419.276 100.619C417.139 99.4448 414.74 98.8291 412.301 98.8291C409.862 98.8291 407.463 99.4448 405.326 100.619C403.189 101.794 401.382 103.489 400.075 105.547C398.767 107.606 398 109.961 397.846 112.395C397.691 114.828 398.153 117.262 399.189 119.469H425.413Z" stroke="#263238" stroke-linecap="round" stroke-linejoin="round"/>
<path d="M44.1661 119.914H430.919" stroke="#263238" stroke-linecap="round" stroke-linejoin="round"/>
<path d="M44.1661 145.828H430.919" stroke="#263238" stroke-linecap="round" stroke-linejoin="round"/>
<path d="M44.1661 222.33H430.919" stroke="#263238" stroke-linecap="round" stroke-linejoin="round"/>
<path d="M44.1661 248.23H430.919" stroke="#263238" stroke-linecap="round" stroke-linejoin="round"/>
<path d="M80.472 175.631H52.593V221.832H80.472V175.631Z" stroke="#263238" stroke-linecap="round" stroke-linejoin="round"/>
<path d="M114.719 175.631H86.8395V221.832H114.719V175.631Z" stroke="#263238" stroke-linecap="round" stroke-linejoin="round"/>
<path d="M148.979 175.631H121.1V221.832H148.979V175.631Z" stroke="#263238" stroke-linecap="round" stroke-linejoin="round"/>
<path d="M183.225 175.631H155.346V221.832H183.225V175.631Z" stroke="#263238" stroke-linecap="round" stroke-linejoin="round"/>
<path d="M217.485 175.631H189.606V221.832H217.485V175.631Z" stroke="#263238" stroke-linecap="round" stroke-linejoin="round"/>
<path d="M251.731 175.631H223.852V221.832H251.731V175.631Z" stroke="#263238" stroke-linecap="round" stroke-linejoin="round"/>
<path d="M285.991 175.631H258.112V221.832H285.991V175.631Z" stroke="#263238" stroke-linecap="round" stroke-linejoin="round"/>
<path d="M320.237 175.631H292.358V221.832H320.237V175.631Z" stroke="#263238" stroke-linecap="round" stroke-linejoin="round"/>
<path d="M354.497 175.631H326.618V221.832H354.497V175.631Z" stroke="#263238" stroke-linecap="round" stroke-linejoin="round"/>
<path d="M388.743 175.631H360.864V221.832H388.743V175.631Z" stroke="#263238" stroke-linecap="round" stroke-linejoin="round"/>
<path d="M422.99 175.631H395.111V221.832H422.99V175.631Z" stroke="#263238" stroke-linecap="round" stroke-linejoin="round"/>
<path d="M400.791 279.501V255.688H392.432V279.501H388.245V324.584H404.978V279.501H400.791Z" stroke="#263238" stroke-linecap="round" stroke-linejoin="round"/>
<path d="M372.818 279.501V255.688H364.445V279.501H360.272V324.584H376.992V279.501H372.818Z" stroke="#263238" stroke-linecap="round" stroke-linejoin="round"/>
<path d="M344.832 279.501V255.688H336.472V279.501H332.286V324.584H349.018V279.501H344.832Z" stroke="#263238" stroke-linecap="round" stroke-linejoin="round"/>
<path d="M316.858 279.501V255.688H308.485V279.501H304.312V324.584H321.031V279.501H316.858Z" stroke="#263238" stroke-linecap="round" stroke-linejoin="round"/>
<path d="M288.871 279.501V255.688H280.512V279.501H276.325V324.584H293.058V279.501H288.871Z" stroke="#263238" stroke-linecap="round" stroke-linejoin="round"/>
<path d="M260.898 279.501V255.688H252.525V279.501H248.352V324.584H265.071V279.501H260.898Z" stroke="#263238" stroke-linecap="round" stroke-linejoin="round"/>
<path d="M232.911 279.501V255.688H224.552V279.501H220.365V324.584H237.098V279.501H232.911Z" stroke="#263238" stroke-linecap="round" stroke-linejoin="round"/>
<path d="M204.939 279.501V255.688H196.565V279.501H192.392V324.584H209.112V279.501H204.939Z" stroke="#263238" stroke-linecap="round" stroke-linejoin="round"/>
<path d="M176.952 279.501V255.688H168.592V279.501H164.405V324.584H181.138V279.501H176.952Z" stroke="#263238" stroke-linecap="round" stroke-linejoin="round"/>
<path d="M148.978 279.501V255.688H140.605V279.501H136.432V324.584H153.151V279.501H148.978Z" stroke="#263238" stroke-linecap="round" stroke-linejoin="round"/>
<path d="M120.992 279.501V255.688H112.632V279.501H108.445V324.584H125.178V279.501H120.992Z" stroke="#263238" stroke-linecap="round" stroke-linejoin="round"/>
<path d="M93.0186 279.501V255.688H84.6455V279.501H80.4724V324.584H97.1917V279.501H93.0186Z" stroke="#263238" stroke-linecap="round" stroke-linejoin="round"/>
<path d="M65.0316 279.501V255.688H56.6719V279.501H52.4854V324.584H69.2181V279.501H65.0316Z" stroke="#263238" stroke-linecap="round" stroke-linejoin="round"/>
<path d="M44.1661 324.746H430.919" stroke="#263238" stroke-linecap="round" stroke-linejoin="round"/>
<path d="M44.1661 350.646H430.919" stroke="#263238" stroke-linecap="round" stroke-linejoin="round"/>
<path d="M226.76 450.828C288.824 450.828 339.137 439.762 339.137 426.112C339.137 412.462 288.824 401.396 226.76 401.396C164.695 401.396 114.382 412.462 114.382 426.112C114.382 439.762 164.695 450.828 226.76 450.828Z" fill="#47B2E4"/>
<path opacity="0.5" d="M226.76 450.828C288.824 450.828 339.137 439.762 339.137 426.112C339.137 412.462 288.824 401.396 226.76 401.396C164.695 401.396 114.382 412.462 114.382 426.112C114.382 439.762 164.695 450.828 226.76 450.828Z" fill="white"/>
<path d="M136.136 409.864C136.136 409.864 135.624 416.514 137.482 418.479C139.34 420.445 155.359 421.172 157.176 418.722C158.994 416.272 157.957 407.158 157.957 407.158C157.957 407.158 151.428 409.312 136.136 409.864Z" fill="#47B2E4" stroke="#263238" stroke-linecap="round" stroke-linejoin="round"/>
<path d="M152.465 417.443C143.728 417.671 139.003 417.106 136.526 416.433C136.662 417.163 136.977 417.847 137.442 418.425C139.246 420.39 155.319 421.117 157.136 418.668C157.424 418.233 157.629 417.749 157.742 417.241C156.126 417.322 154.39 417.389 152.465 417.443Z" fill="white" stroke="#263238" stroke-linecap="round" stroke-linejoin="round"/>
<path d="M183.831 418.156C187.858 421.659 192.538 424.331 197.602 426.018C205.114 428.239 207.187 429.464 206.406 431.927C205.625 434.391 199.15 435.131 183.602 435.629C168.054 436.127 156.356 434.108 154.282 432.627C152.209 431.147 153.502 428.441 154.282 427.714C155.063 426.987 180.977 416.191 183.831 418.156Z" fill="#47B2E4" stroke="#263238" stroke-linecap="round" stroke-linejoin="round"/>
<path d="M206.405 431.981C206.557 431.612 206.604 431.209 206.543 430.815C206.481 430.421 206.312 430.052 206.055 429.747C202.434 431.227 195.959 431.672 181.017 431.497C167.878 431.335 159.855 429.41 153.286 429.666C153.111 430.209 153.113 430.794 153.292 431.336C153.471 431.878 153.818 432.349 154.282 432.681C156.355 434.162 168.053 436.168 183.601 435.683C199.15 435.198 205.638 434.445 206.405 431.981Z" fill="white" stroke="#263238" stroke-linecap="round" stroke-linejoin="round"/>
<path d="M151.953 274.385C151.953 274.385 151.428 303.934 145.734 329.295C140.04 354.657 136.405 366.476 135.368 382.482C134.741 392.078 134.826 401.707 135.624 411.29C135.624 411.29 138.478 412.758 145.478 412.273C149.313 412.121 153.05 411.02 156.355 409.069C156.355 409.069 157.136 381.486 157.136 366.221C157.136 350.955 163.867 309.103 164.392 293.595C164.917 278.087 160.246 270.199 156.88 267.735C153.515 265.272 151.953 274.385 151.953 274.385Z" fill="#263238" stroke="#263238" stroke-linecap="round" stroke-linejoin="round"/>
<path d="M186.159 239.911C186.159 239.911 185.903 254.719 185.903 273.404C185.903 292.089 181.757 335.946 178.392 356.866C175.026 377.785 177.355 406.337 177.867 408.558C178.378 410.779 179.428 410.039 181.232 412.247C182.688 414.192 183.989 416.249 185.123 418.399C185.123 418.399 175.013 425.305 167.246 427.822C159.478 430.339 156.611 431.268 154.807 431.268C153.003 431.268 152.99 429.545 151.697 425.358C150.405 421.172 150.351 403.685 150.351 403.685C150.351 403.685 146.73 378.835 146.73 363.57C146.73 348.304 153.73 338.948 153.73 324.181C153.73 309.414 149.315 269.513 146.73 263.604C144.145 257.694 139.205 249.577 138.653 245.39C138.101 241.204 137.872 238.484 137.872 238.484L186.159 239.911Z" fill="#263238" stroke="#263238" stroke-linecap="round" stroke-linejoin="round"/>
<path d="M179.428 170.718C179.428 170.718 189.269 161.362 191.086 158.172C192.904 154.981 191.611 148.816 193.684 147.093C195.757 145.37 202.744 142.65 203.781 140.443C204.817 138.235 206.123 137.481 206.89 141.183C207.657 144.885 205.086 146.568 203.525 148.318L201.977 150.054L212.342 147.591C212.342 147.591 210.525 139.958 212.854 138.235C215.183 136.512 216.744 147.591 217 150.795C217.256 153.999 214.159 156.462 208.452 158.67C204.896 160.042 201.259 161.193 197.561 162.116L185.904 190.184L179.428 170.718Z" fill="white" stroke="#263238" stroke-linecap="round" stroke-linejoin="round"/>
<path d="M214.415 149.543C214.927 147.093 214.16 138.962 216.233 137.737C218.306 136.512 218.561 142.409 218.561 142.409C218.561 142.409 219.598 148.318 218.306 150.782C217.013 153.245 215.196 153.73 215.196 152.007" fill="white"/>
<path d="M214.415 149.543C214.927 147.093 214.16 138.962 216.233 137.737C218.306 136.512 218.561 142.409 218.561 142.409C218.561 142.409 219.598 148.318 218.306 150.782C217.013 153.245 215.196 153.73 215.196 152.007" stroke="#263238" stroke-linecap="round" stroke-linejoin="round"/>
<path d="M199.204 158.549C199.204 158.549 198.598 155.951 202.744 154.726C206.89 153.501 213.89 152.033 213.89 152.033C213.89 152.033 219.073 137.764 220.89 142.193C222.708 146.622 218.562 155.735 217 157.001C215.438 158.266 203.781 160.447 203.781 160.447" fill="white"/>
<path d="M199.204 158.549C199.204 158.549 198.598 155.951 202.744 154.726C206.89 153.501 213.89 152.033 213.89 152.033C213.89 152.033 219.073 137.764 220.89 142.193C222.708 146.622 218.562 155.735 217 157.001C215.438 158.266 203.781 160.447 203.781 160.447" stroke="#263238" stroke-linecap="round" stroke-linejoin="round"/>
<path d="M153.501 109.912C153.501 109.912 143.136 127.17 139.515 141.978C135.894 156.785 132.515 186.064 131.438 202.797C130.361 219.53 128.072 242.684 128.072 242.684C138.389 245.36 149.024 246.606 159.68 246.386C171.355 246.152 182.982 244.832 194.411 242.442C194.411 242.442 188.744 194.114 183.359 166.047C177.975 137.979 172.738 120.277 172.738 120.277C172.738 120.277 158.684 108.916 153.501 109.912Z" fill="#47B2E4" stroke="#263238" stroke-linecap="round" stroke-linejoin="round"/>
<path d="M160.246 77.6579C161.489 82.3229 161.577 87.2207 160.502 91.9272C158.684 99.56 157.648 104.985 157.648 104.985C157.648 104.985 172.684 120.991 172.684 120.25C172.684 119.51 173.209 111.137 175.538 105.968C177.867 100.798 179.429 97.8907 179.429 97.8907C175.857 95.7689 173.035 92.5886 171.352 88.7907C168.498 82.383 168.242 72.2867 164.352 72.0444C160.461 71.8021 160.246 77.6579 160.246 77.6579Z" fill="white" stroke="#263238" stroke-linecap="round" stroke-linejoin="round"/>
<path d="M196.014 55.7424C196.014 55.7424 196.014 70.2675 197.05 73.4713C198.087 76.6752 201.708 77.4021 201.196 79.1252C200.685 80.8483 195.812 81.8175 195.812 81.8175C195.812 81.8175 194.465 94.1349 193.469 97.5811C192.473 101.027 189.848 101.768 184.14 101.27C178.433 100.771 172.025 99.0619 169.333 95.3599C166.64 91.658 165.186 85.0214 165.186 85.0214C164.413 79.1409 163.964 73.2223 163.84 67.2925C163.84 59.4174 162.804 55.177 173.694 51.0443C184.585 46.9115 195.475 52.2962 196.014 55.7424Z" fill="white" stroke="#263238" stroke-linecap="round" stroke-linejoin="round"/>
<path d="M184.086 84.7925L189.269 87.9963C189.269 87.9963 186.684 92.6675 184.867 91.4425C183.05 90.2175 184.086 84.7925 184.086 84.7925Z" stroke="#263238" stroke-linecap="round" stroke-linejoin="round"/>
<path d="M191.867 74.3327C191.867 75.7596 191.463 76.9173 190.951 76.9173C190.44 76.9173 190.05 75.7596 190.05 74.3327C190.05 72.9057 190.453 71.748 190.951 71.748C191.45 71.748 191.867 72.9057 191.867 74.3327Z" fill="#263238"/>
<path d="M186.415 69.0288C186.415 69.0288 187.761 64.3576 191.611 64.5999" stroke="#263238" stroke-linecap="round" stroke-linejoin="round"/>
<path d="M168.027 80.054L173.411 78.5867C173.411 78.5867 170.302 73.902 173.667 71.6943C177.032 69.4866 181.959 67.75 180.667 65.5289C179.375 63.3077 170.813 62.0827 174.959 59.3769C179.106 56.6711 184.813 55.1903 185.85 56.173C186.886 57.1557 185.85 58.3942 192.581 58.3942C199.311 58.3942 202.946 55.9307 200.873 48.0557C198.8 40.1806 187.654 37.2191 180.681 39.9787C173.707 42.7384 171.607 44.6634 171.607 44.6634C171.607 44.6634 156.8 45.148 152.425 55.4327C148.05 65.7173 149.84 72.1789 152.95 75.6251C156.059 79.0713 160.717 82.7732 162.534 82.7732C164.352 82.7732 168.027 80.054 168.027 80.054Z" fill="#263238" stroke="#263238" stroke-linecap="round" stroke-linejoin="round"/>
<path d="M154.578 69.9581C159.694 68.2619 162.548 63.133 169.386 58.583C173.601 55.8178 178.562 54.4085 183.602 54.5445C183.602 54.5445 180.748 46.0099 187.64 46.5752C194.532 47.1406 196.74 51.6907 190.494 51.1253" stroke="white" stroke-width="0.75" stroke-linecap="round" stroke-linejoin="round"/>
<path d="M170.355 83.0693C170.355 82.3289 168.282 71.9902 164.392 71.9902C160.501 71.9902 158.428 74.6826 159.99 80.8481C161.551 87.0136 166.209 88.9252 169.83 85.7752" fill="white"/>
<path d="M170.355 83.0693C170.355 82.3289 168.282 71.9902 164.392 71.9902C160.501 71.9902 158.428 74.6826 159.99 80.8481C161.551 87.0136 166.209 88.9252 169.83 85.7752" stroke="#263238" stroke-linecap="round" stroke-linejoin="round"/>
<path d="M154.538 99.0752L175.013 117.289L177.086 128.865L149.355 110.396L154.538 99.0752Z" fill="#47B2E4" stroke="#263238" stroke-linecap="round" stroke-linejoin="round"/>
<path d="M143.361 181.481C143.361 181.481 140.656 189.503 142.504 205.436C144.352 221.368 156.205 248.458 156.28 249.937C156.355 251.416 150.889 257.766 151.282 260.455C151.867 262.705 151.942 264.94 153.288 266.835C153.288 266.835 153.544 267.507 154.223 268.387C155.073 269.486 155.691 270.54 157.761 270.434C159.832 270.329 161.314 270.25 163.339 267.923C165.363 265.596 165.334 266.157 165.67 262.689C166.006 259.221 164.709 253.855 164.259 245.009C163.809 236.163 156.048 196.12 157.126 191.874C157.777 189.311 158.604 186.796 159.601 184.348L143.361 181.481Z" fill="white" stroke="#263238" stroke-linecap="round" stroke-linejoin="round"/>
<path d="M154.026 129.108C150.279 130.661 146.916 133.013 144.172 136.001C140.551 140.443 141.843 145.855 142.099 149.301C142.221 152.094 142.135 154.893 141.843 157.674L136.136 180.088C136.136 180.088 137.953 183.036 150.136 185.473C162.319 187.909 166.209 187.936 166.209 187.936C166.209 187.936 165.172 162.359 166.209 151.98C167.246 141.601 168.538 136.714 164.863 133.026" fill="#47B2E4"/>
<path d="M154.026 129.108C150.279 130.661 146.916 133.013 144.172 136.001C140.551 140.443 141.843 145.855 142.099 149.301C142.221 152.095 142.135 154.893 141.843 157.674L136.136 180.088C136.136 180.088 137.953 183.036 150.136 185.473C162.319 187.909 166.209 187.936 166.209 187.936C166.209 187.936 165.172 162.359 166.209 151.98C167.246 141.601 168.538 136.714 164.863 133.026" stroke="#263238" stroke-linecap="round" stroke-linejoin="round"/>
<path d="M269.783 405.099C269.783 405.099 255.298 412.839 252.283 415.868C249.267 418.897 256.779 421.858 262.271 421.858C267.764 421.858 270.254 422.612 278.748 419.368C287.242 416.124 285.991 414.118 293.475 416.11C300.96 418.102 303.975 415.37 303.975 415.37L294.485 404.601L269.783 405.099Z" fill="#47B2E4" stroke="#263238" stroke-linecap="round" stroke-linejoin="round"/>
<path d="M299.236 409.958C294.713 410.265 290.258 411.235 286.017 412.839C279.529 415.343 275.531 417.833 265.825 418.587C261.118 419.024 256.381 418.172 252.121 416.124C249.846 419.018 257.007 421.831 262.338 421.831C267.669 421.831 270.321 422.585 278.815 419.341C287.31 416.097 286.058 414.091 293.542 416.083C301.027 418.075 304.042 415.343 304.042 415.343L299.236 409.958Z" fill="white" stroke="#263238" stroke-linecap="round" stroke-linejoin="round"/>
<path d="M299.533 412.098C299.533 412.098 281.131 425.17 278.115 428.629C275.1 432.089 279.758 435.562 288.279 435.562C296.8 435.562 316.023 428.36 318.218 423.837C320.412 419.314 299.533 412.098 299.533 412.098Z" fill="#47B2E4" stroke="#263238" stroke-linecap="round" stroke-linejoin="round"/>
<path d="M288.279 435.562C296.787 435.562 316.024 428.36 318.218 423.837C318.649 422.935 318.218 421.939 317.154 420.916C310.125 425.447 302.392 428.778 294.27 430.77C285.708 432.843 280.296 432.197 277.187 431.214C277.712 433.637 281.912 435.562 288.279 435.562Z" fill="white" stroke="#263238" stroke-linecap="round" stroke-linejoin="round"/>
<path d="M264.788 200.092C264.788 200.092 250.303 235.092 254.019 259.767C257.734 284.442 265.004 315.956 266 321.691C266.996 327.425 265.744 339.191 267.494 350.149C269.244 361.106 270.994 389.106 270.186 394.855C269.379 400.603 267.938 407.333 267.938 407.333C267.938 407.333 277.186 411.372 280.673 412.328C284.71 413.122 288.8 413.626 292.909 413.835C292.909 413.835 290.419 412.328 296.167 416.326C301.36 419.769 307.1 422.305 313.142 423.824C316.642 424.564 318.392 426.516 318.635 424.564C318.877 422.612 318.89 416.326 318.89 413.795C319.896 401.001 320.143 388.159 319.631 375.335C318.635 355.143 311.648 342.125 313.142 321.394C314.637 300.664 324.383 277.2 322.377 249.482C320.371 221.765 312.738 202.555 312.738 202.555C312.738 202.555 274.036 201.828 264.788 200.092Z" fill="#263238" stroke="#263238" stroke-linecap="round" stroke-linejoin="round"/>
<path d="M279.529 238.538L287.014 246.279C287.014 246.279 285.519 276.5 285.519 296.719C285.519 316.939 285.264 331.181 287.269 343.175C289.275 355.169 294.754 393.858 295.252 401.612C295.75 409.366 296.006 408.854 294.512 410.847C293.732 411.682 293.209 412.724 293.004 413.849" stroke="white" stroke-linecap="round" stroke-linejoin="round"/>
<path d="M344.199 129.661C342.947 130.913 337.468 129.163 338.464 124.922C339.46 120.682 346.447 108.943 339.958 94.9566C333.47 80.97 318.231 80.7277 318.231 80.7277L316.804 84.4027C316.804 81.8854 316.696 79.9334 316.696 79.9334C315.35 76.5546 299.816 70.8199 299.196 75.5449C298.577 80.27 296.168 94.7816 301.889 98.8335C305.766 101.526 309.643 100.18 312.375 97.7701C310.804 104.707 310.265 111.837 310.773 118.932C312.025 135.665 324.518 137.401 333.752 136.432C342.987 135.463 345.451 128.422 344.199 129.661Z" fill="#263238" stroke="#263238" stroke-linecap="round" stroke-linejoin="round"/>
<path d="M319.173 84.5103C319.173 84.5103 335.395 92.5872 336.404 104.783C337.414 116.98 329.31 124.383 332.689 129.122C336.068 133.86 339.783 132.151 339.783 132.151" stroke="white" stroke-width="0.75" stroke-linecap="round" stroke-linejoin="round"/>
<path d="M316.131 87.2158C316.131 87.2158 323.576 100.395 319.51 112.227C315.445 124.06 318.5 133.174 328.637 135.529" stroke="white" stroke-width="0.75" stroke-linecap="round" stroke-linejoin="round"/>
<path d="M286.273 123.67C281.648 125.936 276.791 127.696 271.788 128.92C263.536 130.912 262.042 132.164 261.302 133.914C260.561 135.664 249.806 153.137 242.321 163.88C234.836 174.622 230.825 181.851 232.332 186.603C233.84 191.355 237.569 193.092 241.325 189.847C245.081 186.603 260.79 161.134 260.79 161.134C260.79 161.134 263.792 180.357 263.792 189.093C263.792 197.83 263.294 203.08 263.294 203.08C263.294 203.08 271.29 205.328 289.517 205.328C307.744 205.328 312.739 202.636 312.739 202.636C312.739 202.636 308.7 192.647 310.235 183.911C311.079 178.851 312.432 173.89 314.273 169.103C314.273 169.103 324.019 192.58 326.51 194.572C329 196.565 342.247 201.074 342.247 190.534C342.247 179.993 329.256 151.078 326.012 141.332C322.768 131.585 322.512 132.851 317.019 130.845C311.527 128.839 294.552 125.353 294.552 125.353L286.273 123.67Z" fill="#47B2E4" stroke="#263238" stroke-linecap="round" stroke-linejoin="round"/>
<path d="M232.332 186.603C233.827 191.342 237.569 193.092 241.325 189.848C244.017 187.532 252.808 173.842 257.613 166.223C257.164 165.493 256.64 164.812 256.052 164.19C254.538 162.79 252.742 161.732 250.784 161.086C248.826 160.441 246.753 160.223 244.704 160.448C243.896 161.646 243.115 162.803 242.361 163.88C234.823 174.609 230.825 181.852 232.332 186.603Z" fill="white" stroke="#263238" stroke-linecap="round" stroke-linejoin="round"/>
<path d="M342.206 190.602C342.206 187.505 341.075 182.807 339.393 177.463C332.528 176.707 325.599 178.119 319.577 181.501C322.269 187.505 325.244 193.617 326.469 194.613C328.973 196.592 342.206 201.088 342.206 190.602Z" fill="white" stroke="#263238" stroke-linecap="round" stroke-linejoin="round"/>
<path d="M246.629 168.847L239.185 172.603" stroke="#263238" stroke-linecap="round" stroke-linejoin="round"/>
<path d="M287.768 119.174C287.768 119.174 281.521 119.43 278.775 124.666C276.029 129.903 272.785 149.638 272.785 149.638C272.785 149.638 284.766 146.945 285.762 147.147C286.758 147.349 300.475 154.632 300.475 154.632C300.475 154.632 306.964 134.911 304.716 125.178C302.468 115.445 292.506 117.936 287.768 119.174Z" fill="white" stroke="#263238" stroke-linecap="round" stroke-linejoin="round"/>
<path d="M286.273 113.439C286.273 113.439 286.771 116.926 284.025 127.924C281.279 138.922 282.518 149.139 287.014 145.895C291.51 142.651 297.998 129.162 298.497 123.926C298.995 118.689 300.475 109.441 300.475 109.441C300.475 109.441 296.76 113.439 286.273 113.439Z" fill="white" stroke="#263238" stroke-linecap="round" stroke-linejoin="round"/>
<path d="M275.773 79.9732C275.773 79.9732 273.781 96.2078 275.531 105.698C277.281 115.189 283.769 118.931 294.014 115.929C304.258 112.927 309.494 102.198 309.494 102.198C309.494 102.198 316.737 102.952 318.487 98.4559C320.237 93.9597 318.231 89.4636 314.731 89.7059C311.231 89.9482 307.489 97.9578 304.998 96.7059C302.508 95.454 302.79 86.2059 303.787 82.9617C304.783 79.7174 299.371 76.8905 290.325 75.1405C281.279 73.3905 277.388 73.7943 276.648 74.3059C275.908 74.8174 275.773 79.9732 275.773 79.9732Z" fill="white" stroke="#263238" stroke-linecap="round" stroke-linejoin="round"/>
<path d="M286.26 87.8213C286.26 87.8213 285.762 92.5732 284.523 93.5694C283.285 94.5655 281.023 95.3194 282.517 96.2617C283.596 96.8941 284.783 97.3187 286.017 97.5137" stroke="#263238" stroke-linecap="round" stroke-linejoin="round"/>
<path d="M281.023 101.068C282.153 101.699 283.401 102.09 284.688 102.218C285.976 102.345 287.276 102.206 288.508 101.809C290.761 101.049 292.695 99.5561 294 97.5684" stroke="#263238" stroke-linecap="round" stroke-linejoin="round"/>
<path d="M293.004 89.0735C292.94 89.3321 292.805 89.5675 292.614 89.7526C292.422 89.9377 292.183 90.065 291.922 90.1199C291.662 90.1747 291.391 90.1549 291.141 90.0627C290.892 89.9704 290.673 89.8095 290.511 89.5985C290.348 89.3875 290.249 89.1349 290.224 88.8699C290.199 88.6049 290.249 88.3381 290.369 88.1004C290.489 87.8627 290.673 87.6637 290.901 87.5262C291.129 87.3888 291.391 87.3185 291.658 87.3235C292.065 87.3837 292.433 87.5999 292.684 87.9264C292.936 88.2529 293.05 88.6642 293.004 89.0735Z" fill="#263238"/>
<path d="M282.396 86.7854C282.333 87.044 282.197 87.2794 282.006 87.4645C281.815 87.6496 281.575 87.7769 281.315 87.8318C281.054 87.8866 280.783 87.8668 280.534 87.7746C280.284 87.6823 280.065 87.5215 279.903 87.3104C279.741 87.0994 279.641 86.8469 279.616 86.5818C279.591 86.3168 279.641 86.05 279.761 85.8123C279.881 85.5746 280.066 85.3756 280.294 85.2381C280.522 85.1007 280.784 85.0304 281.05 85.0354C281.456 85.0988 281.822 85.3157 282.073 85.6415C282.323 85.9672 282.439 86.3767 282.396 86.7854Z" fill="#263238"/>
<path d="M277.967 81.2117C277.967 81.2117 279.219 75.8271 283.796 79.1387" stroke="#263238" stroke-linecap="round" stroke-linejoin="round"/>
<path d="M290.594 81.2117C291.139 81.0606 291.714 81.0516 292.263 81.1854C292.812 81.3192 293.318 81.5913 293.732 81.9759C294.146 82.3605 294.455 82.8448 294.63 83.3826C294.804 83.9204 294.837 84.4939 294.727 85.0483" stroke="#263238" stroke-linecap="round" stroke-linejoin="round"/>
<path d="M276.527 75.235C276.527 75.235 278.021 64.735 281.023 60.4946C284.025 56.2542 294.754 53.7638 306.748 58.5023C318.743 63.2408 321.731 69.985 320.721 76.2312C319.701 81.1935 318.2 86.0446 316.239 90.7158C316.239 90.7158 308.741 81.7235 301.498 78.7216C294.256 75.7196 276.527 75.235 276.527 75.235Z" fill="#47B2E4" stroke="#263238" stroke-linecap="round" stroke-linejoin="round"/>
<path d="M312.16 86.3138C312.16 86.3138 308.539 79.058 297.083 74.0234C288.383 70.207 278.677 69.3281 269.433 71.5195C264.129 72.8657 258.26 75.9888 263.012 78.7754C267.764 81.5619 268.598 77.4292 279.489 79.3407C290.379 81.2523 313.008 88.2658 313.008 88.2658L312.16 86.3138Z" fill="#47B2E4" stroke="#263238" stroke-linecap="round" stroke-linejoin="round"/>
<path d="M276.971 78.7757C276.971 78.7757 262.163 75.1409 261.611 77.1064C261.059 79.0719 268.315 81.5759 276.971 78.7757Z" fill="white" stroke="#263238" stroke-linecap="round" stroke-linejoin="round"/>
<path d="M294.511 177.867L289.019 160.878L248.311 157.634L263.792 207.078L303.746 214.321L294.511 177.867Z" fill="white" stroke="#263238" stroke-linecap="round" stroke-linejoin="round"/>
<path d="M249.752 179.159C249.752 179.159 251.3 183.628 253.629 184.988C255.958 186.348 256.55 184.598 255.191 182.659C254.35 181.575 253.632 180.401 253.05 179.159C252.874 178.881 252.631 178.652 252.342 178.493C252.054 178.335 251.73 178.251 251.401 178.251C251.072 178.251 250.748 178.335 250.46 178.493C250.172 178.652 249.928 178.881 249.752 179.159Z" fill="white" stroke="#263238" stroke-linecap="round" stroke-linejoin="round"/>
<path d="M248.971 175.847C248.971 175.847 248.769 178.957 250.129 180.128C251.488 181.299 257.331 182.659 257.519 181.097C257.708 179.536 257.909 179.549 254.221 178.405C252.326 177.889 250.545 177.021 248.971 175.847Z" fill="white" stroke="#263238" stroke-linecap="round" stroke-linejoin="round"/>
<path d="M248.769 169.238C248.769 169.238 246.076 174.299 247.019 175.659C247.961 177.018 256.752 178.957 257.519 177.988C258.286 177.018 256.173 174.097 254.221 172.926C252.269 171.755 248.769 169.238 248.769 169.238Z" fill="white" stroke="#263238" stroke-linecap="round" stroke-linejoin="round"/>
<path d="M250.91 166.128C250.91 166.128 246.629 166.518 246.629 168.82C246.629 171.122 254.221 176.022 255.379 174.851C256.537 173.68 255.971 172.899 254.221 170.813C253.029 169.316 251.923 167.751 250.91 166.128Z" fill="white" stroke="#263238" stroke-linecap="round" stroke-linejoin="round"/>
<path d="M277.281 160.635L272.475 159.882L271.923 154.214L264.439 152.922L266.431 158.939L261.289 158.132L264.29 166.128L278.775 168.12L277.281 160.635Z" fill="white" stroke="#263238" stroke-linecap="round" stroke-linejoin="round"/>
<path d="M299.008 175.08C295.334 174.211 291.581 173.719 287.808 173.612C285.425 173.612 275.504 177.072 277.214 177.759C278.923 178.445 285.762 177.759 286.785 177.759C287.836 177.874 288.87 178.109 289.867 178.459C289.867 178.459 283.716 179.145 282.342 179.495C280.969 179.845 275.504 181.568 276.877 182.605C278.25 183.641 283.716 182.955 283.716 182.955L289.517 183.305C286.924 183.902 284.3 184.351 281.656 184.651C279.946 184.651 280.969 186.724 283.002 186.724C285.035 186.724 291.2 187.424 291.2 187.424C291.2 187.424 285.048 188.77 284.712 190.184C284.375 191.597 289.841 190.884 291.55 190.184C293.26 189.484 299.412 186.038 300.771 185.688C302.131 185.338 305.564 184.341 305.564 184.341C305.564 184.341 318.204 189.874 321.96 192.634C325.716 195.393 328.798 198.517 334.95 198.517C341.102 198.517 342.139 193.334 342.139 189.174C342.139 185.014 335.637 182.255 330.172 181.568C324.706 180.882 312.402 177.072 308.633 176.722C305.397 176.351 302.184 175.802 299.008 175.08Z" fill="white" stroke="#263238" stroke-linecap="round" stroke-linejoin="round"/>
</svg>
