<svg width="511" height="281" viewBox="0 0 511 281" fill="none" xmlns="http://www.w3.org/2000/svg">
<g clip-path="url(#clip0_979_644)">
<path d="M28.4419 201.124H382.594V232.694H28.4419V201.124Z" fill="white" stroke="#181518"/>
<path d="M30.0497 232.694H25.6761C24.336 232.694 23.0509 232.161 22.1033 231.214C21.1558 230.267 20.6235 228.983 20.6235 227.643V201.124H30.0497V232.694Z" fill="#3A526A" stroke="#181518"/>
<path d="M362.09 0.5C366.418 0.5 370.581 2.08295 373.656 4.60607C376.731 7.12987 378.686 10.5633 378.686 14.2607L378.681 190.807C378.681 194.504 376.727 197.967 373.65 200.52C370.575 203.072 366.413 204.683 362.085 204.683H26.9475C18.2825 204.683 11.5 198.248 11.5 190.807V14.2607C11.5 6.82138 18.2653 0.5 26.9475 0.5H362.09Z" fill="white" stroke="#181518"/>
<path d="M473.1 75.176L473.1 75.1763L495.095 142.989L500.284 232.696H381.641V72.8047H469.641C471.245 72.8047 472.624 73.7051 473.1 75.176Z" fill="#5BC2BA" stroke="#181518"/>
<path d="M497.199 207.878L497.199 207.878L497.208 207.877C498.617 207.825 500.008 208.204 501.195 208.965C502.201 209.62 502.501 210.508 502.493 211.496V211.501V233.692C502.493 234.594 501.916 235.434 500.849 236.075C499.787 236.712 498.307 237.102 496.697 237.103L405.056 234.853L405.46 209.645L497.199 207.878Z" fill="#3A526A" stroke="#181518"/>
<path d="M464.612 85.5371L464.612 85.5372L477.921 138.303L478.404 138.181L477.921 138.303C478.068 138.886 478.068 139.497 477.921 140.079C477.773 140.662 477.483 141.199 477.076 141.642C476.669 142.085 476.158 142.42 475.589 142.616C475.02 142.812 474.412 142.863 473.818 142.766L473.817 142.765L409.717 132.402C409.716 132.402 409.716 132.402 409.715 132.402C408.879 132.261 408.117 131.835 407.561 131.195C407.003 130.556 406.686 129.743 406.661 128.895L406.661 128.895L405.412 86.6497C405.412 86.6496 405.412 86.6496 405.412 86.6495C405.382 85.6323 405.752 84.6439 406.443 83.896C407.176 83.1421 408.124 82.5742 409.046 82.5742H461.091C462.716 82.5742 464.196 83.8861 464.612 85.5371Z" fill="white" stroke="#181518"/>
<path d="M494.935 142.583L490.919 143.336L490.919 143.336C490.019 143.505 489.089 143.329 488.313 142.842C487.538 142.355 486.976 141.594 486.738 140.71L486.738 140.71L472.233 86.7965L472.233 86.7961C472.101 86.3063 472.073 85.7943 472.151 85.293C472.229 84.7917 472.411 84.3123 472.686 83.8857C472.961 83.4592 473.322 83.0949 473.747 82.8164C474.171 82.538 474.649 82.3515 475.15 82.2691L475.151 82.2689L475.404 82.2266L494.935 142.583Z" fill="white" stroke="#181518"/>
<path d="M426.104 146.559H409.815C407.655 146.559 405.904 148.309 405.904 150.467V152.422C405.904 154.58 407.655 156.33 409.815 156.33H426.104C428.264 156.33 430.015 154.58 430.015 152.422V150.467C430.015 148.309 428.264 146.559 426.104 146.559Z" fill="#181518"/>
<path d="M387.274 25.2919C409.525 26.9141 421.339 38.6675 427.611 50.0147C430.752 55.6973 432.503 61.2822 433.47 65.4482C433.953 67.5304 434.239 69.2558 434.404 70.4586C434.482 71.0281 434.533 71.4803 434.565 71.7975H381.641V29.6792C381.641 28.5149 382.478 27.3638 383.479 26.4357C384.37 25.6103 385.979 25.1977 387.274 25.2919ZM387.274 25.2919L387.31 24.7932L387.274 25.2919Z" fill="#3A526A" stroke="#181518"/>
<path d="M436.473 277.998C459.633 277.998 478.408 259.23 478.408 236.08C478.408 212.929 459.633 194.162 436.473 194.162C413.312 194.162 394.537 212.929 394.537 236.08C394.537 259.23 413.312 277.998 436.473 277.998Z" fill="#181518"/>
<path d="M440.488 269.85C459.169 267.657 472.534 250.741 470.34 232.068C468.145 213.395 451.222 200.036 432.541 202.23C413.861 204.423 400.496 221.339 402.69 240.012C404.885 258.685 421.808 272.044 440.488 269.85Z" fill="#181518"/>
<path opacity="0.7" d="M465.081 248.622C464.947 248.621 464.816 248.588 464.698 248.525C464.581 248.462 464.481 248.37 464.407 248.259C464.333 248.148 464.288 248.02 464.275 247.888C464.262 247.755 464.283 247.621 464.334 247.498C466.713 241.866 467.273 235.633 465.935 229.668C464.598 223.703 461.43 218.305 456.875 214.227C452.319 210.149 446.603 207.594 440.525 206.921C434.447 206.248 428.31 207.489 422.971 210.471C422.879 210.527 422.775 210.564 422.668 210.58C422.56 210.596 422.45 210.59 422.345 210.562C422.24 210.534 422.142 210.486 422.056 210.419C421.97 210.353 421.898 210.27 421.845 210.175C421.792 210.08 421.758 209.975 421.746 209.867C421.735 209.759 421.745 209.65 421.776 209.546C421.808 209.442 421.86 209.345 421.929 209.262C421.999 209.178 422.085 209.11 422.182 209.06C427.814 205.917 434.288 204.611 440.699 205.323C447.111 206.034 453.14 208.729 457.945 213.031C462.751 217.332 466.093 223.026 467.506 229.317C468.918 235.609 468.331 242.184 465.825 248.126C465.763 248.273 465.66 248.398 465.527 248.486C465.395 248.574 465.24 248.621 465.081 248.622Z" fill="white"/>
<path d="M451.606 240.039C453.77 231.693 448.755 223.174 440.406 221.011C432.056 218.848 423.533 223.86 421.369 232.206C419.205 240.552 424.22 249.071 432.569 251.234C440.919 253.397 449.442 248.385 451.606 240.039Z" fill="white"/>
<path d="M177.918 277.998C201.078 277.998 219.853 259.23 219.853 236.08C219.853 212.929 201.078 194.162 177.918 194.162C154.757 194.162 135.982 212.929 135.982 236.08C135.982 259.23 154.757 277.998 177.918 277.998Z" fill="#181518"/>
<path d="M181.937 269.867C200.618 267.673 213.982 250.758 211.788 232.085C209.593 213.412 192.671 200.053 173.99 202.246C155.309 204.44 141.944 221.356 144.139 240.028C146.333 258.701 163.256 272.06 181.937 269.867Z" fill="#181518"/>
<path opacity="0.7" d="M206.526 248.622C206.392 248.622 206.261 248.588 206.144 248.525C206.026 248.462 205.926 248.371 205.852 248.259C205.778 248.148 205.733 248.021 205.72 247.888C205.708 247.755 205.728 247.621 205.779 247.498C208.158 241.867 208.718 235.633 207.381 229.668C206.043 223.703 202.876 218.305 198.32 214.227C193.764 210.149 188.048 207.595 181.97 206.921C175.892 206.248 169.755 207.489 164.417 210.471C164.324 210.523 164.222 210.556 164.116 210.569C164.011 210.581 163.904 210.573 163.802 210.544C163.699 210.515 163.604 210.467 163.52 210.401C163.437 210.335 163.367 210.254 163.315 210.161C163.263 210.069 163.23 209.967 163.217 209.861C163.205 209.756 163.213 209.649 163.242 209.547C163.27 209.445 163.319 209.349 163.385 209.265C163.45 209.182 163.532 209.112 163.624 209.06C169.257 205.918 175.731 204.612 182.142 205.324C188.553 206.036 194.582 208.731 199.387 213.032C204.193 217.333 207.535 223.027 208.948 229.318C210.362 235.609 209.775 242.184 207.27 248.126C207.208 248.273 207.105 248.398 206.973 248.486C206.84 248.574 206.685 248.622 206.526 248.622Z" fill="white"/>
<path d="M193.037 240.036C195.201 231.69 190.187 223.171 181.837 221.008C173.488 218.845 164.965 223.857 162.801 232.203C160.637 240.549 165.651 249.068 174.001 251.231C182.35 253.394 190.873 248.382 193.037 240.036Z" fill="white"/>
<path d="M81.9823 277.998C105.143 277.998 123.918 259.23 123.918 236.08C123.918 212.929 105.143 194.162 81.9823 194.162C58.8217 194.162 40.0464 212.929 40.0464 236.08C40.0464 259.23 58.8217 277.998 81.9823 277.998Z" fill="#181518"/>
<path d="M86.0016 269.873C104.682 267.679 118.047 250.764 115.853 232.091C113.658 213.418 96.7355 200.059 78.0546 202.252C59.3738 204.446 46.009 221.361 48.2035 240.034C50.398 258.707 67.3208 272.066 86.0016 269.873Z" fill="#181518"/>
<path opacity="0.7" d="M110.59 248.622C110.457 248.622 110.326 248.589 110.208 248.525C110.09 248.462 109.99 248.371 109.917 248.259C109.843 248.148 109.798 248.02 109.786 247.887C109.774 247.755 109.794 247.621 109.846 247.498C112.224 241.866 112.783 235.633 111.445 229.668C110.107 223.704 106.939 218.306 102.384 214.228C97.8283 210.15 92.1124 207.596 86.0345 206.923C79.9565 206.249 73.8198 207.489 68.4812 210.471C68.3883 210.527 68.285 210.564 68.1774 210.58C68.0698 210.596 67.9602 210.59 67.855 210.562C67.7498 210.535 67.6513 210.486 67.5653 210.419C67.4793 210.353 67.4076 210.27 67.3545 210.175C67.3014 210.08 67.268 209.976 67.2562 209.867C67.2444 209.759 67.2546 209.65 67.286 209.546C67.3175 209.442 67.3696 209.345 67.4392 209.262C67.5089 209.178 67.5947 209.11 67.6914 209.06C72.3114 206.482 77.5146 205.129 82.8058 205.13C99.8777 205.13 113.769 219.013 113.769 236.077C113.777 240.216 112.949 244.315 111.335 248.126C111.273 248.273 111.17 248.398 111.038 248.486C110.905 248.575 110.75 248.622 110.59 248.622V248.622Z" fill="white"/>
<path d="M96.6703 241.36C99.6062 233.253 95.4115 224.302 87.3012 221.368C79.1909 218.433 70.2362 222.626 67.3003 230.733C64.3644 238.84 68.5591 247.791 76.6694 250.725C84.7797 253.66 93.7344 249.467 96.6703 241.36Z" fill="white"/>
<path d="M486.287 184.189H496.905C498.915 184.189 500.545 185.818 500.545 187.827V202.35C500.545 204.359 498.915 205.987 496.905 205.987H486.287C484.277 205.987 482.647 204.359 482.647 202.35V187.827C482.647 185.818 484.277 184.189 486.287 184.189Z" fill="#3A526A" stroke="#181518"/>
<path opacity="0.8" d="M487.218 184.18L490.118 184.186V204.675H487.218C486.246 204.675 485.095 204.117 484.169 203.243C483.242 202.367 482.647 201.277 482.647 200.326V186.712C482.647 185.828 483.167 185.213 484.043 184.791C484.933 184.362 486.117 184.18 487.218 184.18C487.218 184.18 487.218 184.18 487.218 184.18Z" fill="white" stroke="#181518"/>
<path opacity="0.7" d="M388.31 178.635C388.095 178.635 387.889 178.55 387.737 178.398C387.586 178.246 387.5 178.041 387.5 177.826V82.0739C387.5 81.8594 387.586 81.6537 387.737 81.502C387.889 81.3503 388.095 81.2651 388.31 81.2651C388.524 81.2651 388.73 81.3503 388.882 81.502C389.033 81.6537 389.119 81.8594 389.119 82.0739V177.826C389.119 178.041 389.033 178.246 388.882 178.398C388.73 178.55 388.524 178.635 388.31 178.635V178.635Z" fill="white"/>
<path opacity="0.7" d="M425.206 67.9556C425.037 67.9557 424.873 67.9031 424.735 67.8051C424.598 67.7072 424.495 67.5688 424.44 67.4093C412.044 31.5013 386.453 34.043 386.196 34.0743C385.987 34.0909 385.78 34.026 385.618 33.8932C385.456 33.7603 385.352 33.5699 385.328 33.362C385.303 33.1541 385.361 32.9448 385.488 32.7783C385.614 32.6117 385.801 32.5008 386.008 32.4688C386.278 32.44 413.13 29.6961 425.979 66.887C426.014 66.9873 426.029 67.0936 426.023 67.1998C426.017 67.3059 425.99 67.4098 425.943 67.5054C425.896 67.601 425.831 67.6863 425.752 67.7566C425.672 67.8269 425.579 67.8806 425.478 67.9147C425.39 67.9445 425.298 67.9584 425.206 67.9556Z" fill="white"/>
<g clip-path="url(#clip1_979_644)">
<path d="M201.27 74.8691C201.136 74.7807 201.133 74.7237 201.132 74.7191L201.233 74.4018L200.894 74.3992L200.894 74.3992H200.894L200.894 74.3992L200.894 74.3992L200.892 74.3992L200.878 74.3988C200.866 74.3983 200.846 74.3973 200.819 74.3953C200.766 74.3913 200.687 74.3835 200.586 74.368C200.385 74.3369 200.1 74.2753 199.772 74.1533C199.117 73.9098 198.289 73.4259 197.604 72.4594C196.851 71.3936 196.053 70.0273 195.463 68.9694L195.463 68.9694L195.462 68.9672C194.895 67.9742 194.734 66.802 195.013 65.6943C195.207 64.9582 195.511 64.3279 195.857 63.721C196.02 63.4361 196.19 63.1583 196.364 62.8758C196.376 62.8563 196.388 62.8369 196.4 62.8174C196.585 62.5159 196.773 62.2088 196.952 61.8892L197.042 61.7273L196.913 61.5938L193.561 58.1152L193.559 58.1131C193.555 58.1071 193.547 58.0971 193.537 58.0835C193.517 58.0562 193.489 58.0146 193.457 57.9609C193.394 57.8526 193.322 57.6995 193.281 57.5179C193.212 57.2084 193.229 56.7954 193.597 56.3496C193.632 56.3811 193.672 56.417 193.717 56.4571C193.913 56.6323 194.197 56.8882 194.549 57.2105C195.253 57.8551 196.229 58.7651 197.316 59.8263C199.492 61.9513 202.106 64.6731 203.879 67.082C203.931 67.1524 203.985 67.2846 204.028 67.4934C204.07 67.6967 204.097 67.9491 204.112 68.2396C204.141 68.8204 204.118 69.5286 204.072 70.2512C204.026 70.9725 203.958 71.7011 203.898 72.3216C203.892 72.3854 203.886 72.4481 203.88 72.5097C203.832 73.004 203.792 73.4223 203.778 73.6866C203.205 74.743 202.469 75.0378 201.929 75.0404C201.646 75.0417 201.413 74.9638 201.27 74.8691Z" fill="white" stroke="#181518" stroke-width="0.5"/>
<path d="M197.798 64.7852C197.845 64.611 197.97 64.4647 198.177 64.3335L201.056 66.765L201.942 69.1351L199.651 71.6656C199.633 71.5696 199.612 71.4618 199.589 71.3441C199.492 70.8465 199.355 70.1711 199.197 69.4607C199.039 68.7508 198.859 68.0032 198.675 67.3619C198.494 66.7308 198.301 66.172 198.11 65.8623C197.784 65.3338 197.741 64.9995 197.798 64.7852Z" fill="white" stroke="#181518" stroke-width="0.5"/>
<path d="M259.337 276.739L259.337 276.739C253.556 276.979 241.219 277.443 236.801 277.247C236.686 277.242 236.574 277.209 236.475 277.151C236.375 277.094 236.291 277.014 236.229 276.917C236.166 276.821 236.128 276.712 236.118 276.598C236.107 276.484 236.123 276.369 236.166 276.263L236.166 276.262C236.347 275.807 236.697 275.438 237.144 275.23C237.144 275.23 237.144 275.23 237.144 275.23L257.515 265.905L260.848 265.37C260.869 265.494 260.898 265.664 260.932 265.873C261.011 266.349 261.119 267.028 261.239 267.841C261.479 269.469 261.767 271.634 261.956 273.786C261.987 274.152 261.943 274.521 261.827 274.871C261.711 275.22 261.525 275.543 261.28 275.819C261.036 276.095 260.738 276.319 260.404 276.477C260.07 276.635 259.707 276.724 259.337 276.739Z" fill="#3A526A" stroke="#181518" stroke-width="0.5"/>
<path d="M256.715 261.995L261.408 262.73L260.832 267.566C260.825 267.569 260.818 267.572 260.811 267.575C260.712 267.615 260.568 267.671 260.387 267.732C260.023 267.854 259.515 267.999 258.934 268.087C257.809 268.256 256.451 268.208 255.332 267.428L256.715 261.995Z" fill="white" stroke="#181518" stroke-width="0.5"/>
<path d="M261.218 164.414C261.486 165.777 262.659 232.418 255.508 262.281C255.449 262.517 255.478 262.765 255.587 262.981C255.696 263.197 255.88 263.367 256.104 263.461C257.966 264.178 259.935 264.576 261.93 264.64C262.318 264.652 262.7 264.534 263.014 264.307C263.328 264.079 263.558 263.754 263.666 263.382C265.711 256.453 275.506 221.738 276.785 188.574C278.214 151.518 276.785 187.317 276.785 187.317L275.948 164.411L261.218 164.414Z" fill="#181518"/>
<path d="M286.701 275.464L286.701 275.465C286.746 275.679 286.744 275.901 286.697 276.115C286.65 276.329 286.559 276.531 286.428 276.708C286.298 276.885 286.132 277.032 285.94 277.141C285.749 277.25 285.537 277.318 285.317 277.339C283.412 277.526 280.488 277.766 278.15 277.749L278.149 277.749C277.928 277.748 277.71 277.701 277.509 277.611C277.307 277.52 277.128 277.388 276.981 277.224C276.835 277.06 276.725 276.867 276.659 276.657C276.593 276.448 276.572 276.227 276.598 276.01C276.854 273.915 277.643 270.517 280.043 267.851L284.373 267.619C284.406 267.686 284.45 267.779 284.504 267.898C284.635 268.19 284.824 268.642 285.05 269.276C285.503 270.546 286.106 272.548 286.701 275.464Z" fill="#3A526A" stroke="#181518" stroke-width="0.5"/>
<path d="M280.796 260.606L285.306 260.88L283.924 268.387C283.887 268.409 283.836 268.437 283.772 268.469C283.608 268.549 283.357 268.651 283.02 268.731C282.38 268.883 281.42 268.957 280.14 268.642L280.796 260.606ZM284.002 268.338L284.002 268.338L284.002 268.338L284.002 268.338Z" fill="white" stroke="#181518" stroke-width="0.5"/>
<path d="M289.527 166.46C295.368 201.62 288.264 253.36 285.858 263.488C285.787 263.791 285.627 264.067 285.399 264.28C285.171 264.494 284.885 264.635 284.576 264.687C283.506 264.863 281.735 265.002 279.998 264.505C279.706 264.42 279.447 264.245 279.26 264.006C279.073 263.767 278.966 263.475 278.955 263.172C278.639 254.985 279.212 204.722 273.761 184.859C273.485 183.853 272.867 182.974 272.013 182.37L261.436 174.88L260.625 162.773L289.527 166.46Z" fill="#181518"/>
<path d="M288.845 104.611C288.868 104.616 288.888 104.621 288.907 104.626C291.49 119.74 291.716 135.998 291.293 148.498C291.081 154.769 290.705 160.092 290.383 163.846C290.222 165.724 290.074 167.209 289.967 168.224C289.913 168.732 289.869 169.123 289.839 169.386C289.828 169.478 289.819 169.555 289.812 169.616C283.122 171.323 276.014 170.788 270.553 169.815C267.802 169.324 265.473 168.723 263.833 168.245C263.013 168.006 262.366 167.798 261.923 167.65C261.702 167.576 261.533 167.517 261.419 167.476C261.405 167.471 261.392 167.467 261.381 167.463C260.228 161.065 257.054 149.051 254.161 138.614C252.703 133.355 251.316 128.492 250.294 124.944C249.782 123.17 249.362 121.725 249.069 120.723C248.923 120.222 248.809 119.832 248.731 119.568L248.643 119.266L248.62 119.189L248.614 119.17L248.613 119.165L248.612 119.163C248.612 119.163 248.612 119.163 248.373 119.234L248.612 119.163L248.566 119.006L248.403 118.986C240.001 117.947 233.062 115.555 227.331 112.39C231.568 107.381 233.624 101.127 234.552 97.301C240.693 99.1748 246.894 100.177 252.259 100.088C260.999 99.9441 270.2 101.088 277.22 102.269C280.729 102.859 283.692 103.458 285.776 103.91C286.819 104.136 287.641 104.325 288.203 104.457C288.484 104.523 288.7 104.575 288.845 104.611Z" fill="#5BC2BA" stroke="#181518" stroke-width="0.5"/>
<path d="M203.945 73.1511C204.034 73.1741 204.108 73.1972 204.162 73.2161C205.504 78.6685 209.558 83.5815 214.98 87.6623C220.39 91.7338 227.185 94.9954 234.08 97.1532C233.158 100.971 231.108 107.193 226.892 112.142C215.529 105.718 208.99 96.2392 205.289 88.3421C203.428 84.3733 202.286 80.8065 201.609 78.2329C201.27 76.9463 201.048 75.9083 200.911 75.1929C200.842 74.8352 200.795 74.5582 200.764 74.3712C200.753 74.3006 200.744 74.2429 200.737 74.1985C201.527 73.2952 202.397 73.0615 203.075 73.0489C203.427 73.0423 203.73 73.0959 203.945 73.1511Z" fill="white" stroke="#181518" stroke-width="0.5"/>
<path d="M282.717 121.214L289.237 104.808C289.351 104.889 289.501 104.996 289.683 105.128C290.133 105.457 290.78 105.942 291.566 106.569C293.137 107.823 295.26 109.64 297.466 111.894C301.827 116.349 306.486 122.483 307.889 129.324C304.782 129.576 299.428 130.39 294.134 132.983C293.394 129.7 290.538 126.768 287.883 124.657C286.504 123.561 285.164 122.674 284.169 122.061C283.672 121.755 283.26 121.517 282.972 121.355C282.871 121.298 282.786 121.251 282.717 121.214Z" fill="#5BC2BA" stroke="#181518" stroke-width="0.5"/>
<path d="M260.708 99.5356L258.937 85.915H269.832L275.351 101.811L275.352 101.813C275.377 101.886 275.377 101.965 275.349 102.038C275.322 102.11 275.27 102.171 275.202 102.209C273.718 103.024 268.348 105.402 261.857 101.304L261.855 101.303C261.545 101.111 261.281 100.852 261.083 100.547C260.885 100.241 260.757 99.8964 260.708 99.5362C260.708 99.536 260.708 99.5358 260.708 99.5356Z" fill="white" stroke="#181518" stroke-width="0.5"/>
<path d="M299.583 175.412C299.564 175.469 299.546 175.521 299.531 175.567C299.011 175.33 297.748 174.749 294.808 173.391C297.342 166.125 297.196 156.151 296.421 147.993C296.029 143.867 295.474 140.194 295.018 137.553C294.79 136.232 294.586 135.169 294.439 134.436C294.366 134.069 294.307 133.785 294.266 133.592C294.252 133.525 294.24 133.47 294.23 133.425C296.433 131.049 300.277 128.999 308.018 129.785C308.471 130.95 308.7 132.504 308.743 134.353C308.787 136.271 308.631 138.488 308.327 140.883C307.721 145.672 306.533 151.149 305.216 156.329C303.9 161.507 302.456 166.381 301.342 169.961C300.785 171.751 300.31 173.217 299.974 174.236C299.807 174.745 299.674 175.142 299.583 175.412Z" fill="white" stroke="#181518" stroke-width="0.5"/>
<path d="M294.497 173.523L294.694 173.676L294.699 173.67C294.866 173.44 295.036 173.274 295.241 173.174C295.442 173.076 295.7 173.031 296.065 173.089C296.802 173.205 297.92 173.731 299.716 174.967C300.46 178.355 299.119 181.653 297.385 184.164C296.512 185.428 295.547 186.482 294.716 187.234C294.301 187.61 293.922 187.908 293.608 188.117C293.285 188.334 293.057 188.438 292.939 188.459C292.887 188.468 292.86 188.462 292.846 188.457C292.833 188.452 292.815 188.441 292.793 188.411C292.743 188.34 292.694 188.196 292.671 187.948C292.625 187.459 292.689 186.72 292.808 185.803C292.872 185.308 292.952 184.766 293.036 184.192C293.237 182.818 293.465 181.264 293.57 179.756C293.601 179.585 293.613 179.406 293.6 179.222L293.101 179.227C293.093 179.381 293.084 179.535 293.073 179.69C292.985 180.14 292.722 180.553 292.43 180.89C292.283 181.059 292.134 181.203 292.006 181.316C292.002 181.282 291.998 181.246 291.993 181.208C291.944 180.824 291.863 180.229 291.732 179.387C291.678 179.042 291.806 178.521 292.075 177.892C292.338 177.277 292.715 176.603 293.105 175.976C293.494 175.349 293.892 174.774 294.192 174.354C294.343 174.145 294.469 173.975 294.557 173.857C294.601 173.799 294.635 173.753 294.659 173.722L294.686 173.687L294.692 173.679L294.694 173.677L294.694 173.676L294.694 173.676L294.497 173.523Z" fill="white" stroke="#181518" stroke-width="0.5"/>
<path d="M269.934 73.5532C270.068 73.6643 270.175 73.7546 270.252 73.8201L262.217 91.4165L251.251 88.5335L251.425 87.9286C251.581 87.3869 251.805 86.6128 252.073 85.6831C252.611 83.8237 253.329 81.3419 254.053 78.8523C254.777 76.3625 255.507 73.8652 256.067 71.9747C256.347 71.0293 256.584 70.2363 256.757 69.672C256.844 69.3897 256.914 69.1658 256.965 69.009C256.991 68.9304 257.011 68.8704 257.026 68.829C257.031 68.8134 257.036 68.8016 257.039 68.7932C257.722 67.8657 258.833 67.6515 260.212 67.9202C261.601 68.1906 263.193 68.9416 264.711 69.8374C266.224 70.7308 267.645 71.7568 268.689 72.5609C269.211 72.9626 269.638 73.3082 269.934 73.5532ZM257.045 68.7787C257.045 68.7788 257.045 68.7801 257.043 68.7821C257.045 68.7797 257.045 68.7786 257.045 68.7787Z" fill="white" stroke="#181518" stroke-width="0.5"/>
<path d="M262.645 86.7713C262.75 86.6269 262.834 86.4681 262.894 86.2999C262.895 86.2997 262.895 86.2994 262.895 86.2991L266.416 76.6489C266.416 76.6489 266.416 76.6488 266.416 76.6487C266.518 76.3703 266.555 76.0722 266.524 75.7774C266.492 75.4826 266.394 75.199 266.235 74.9483C265.843 74.3259 265.192 73.4257 264.328 72.6997C263.463 71.9739 262.363 71.404 261.081 71.4925C259.494 71.5954 257.348 71.2967 255.651 70.537C253.945 69.7733 252.785 68.594 252.94 66.9655C253.107 65.2258 253.96 63.1904 255.371 61.7912C256.772 60.4026 258.715 59.6441 261.105 60.4094L261.106 60.4095C262.414 60.8267 263.195 61.4953 263.652 62.2325C264.112 62.9743 264.26 63.8082 264.26 64.5738V64.574C264.26 64.825 264.31 65.0735 264.408 65.3049C264.506 65.5362 264.648 65.7458 264.828 65.9214C265.008 66.097 265.221 66.2351 265.455 66.3276C265.689 66.4201 265.939 66.4653 266.191 66.4605V66.4606L266.197 66.4603C266.349 66.4539 266.5 66.487 266.635 66.5564C266.771 66.6257 266.885 66.7288 266.968 66.8555L266.968 66.8556L266.973 66.8626C267.224 67.2178 267.584 67.482 267.999 67.6154C268.412 67.7486 268.859 67.7443 269.27 67.6033C270.894 67.0727 273.314 66.862 275.151 69.1772C276.066 70.3303 276.233 71.3412 276.058 72.1854C275.881 73.0428 275.343 73.7682 274.776 74.32C274.41 74.6707 274.196 75.1499 274.18 75.6557C274.164 76.1617 274.347 76.6539 274.689 77.0273L274.689 77.0274L274.691 77.0295C275.897 78.3112 276.054 79.4441 275.822 80.3545C275.585 81.2875 274.925 82.0356 274.408 82.4992L274.408 82.4994C274.259 82.6333 274.084 82.7351 273.894 82.7984C273.703 82.8617 273.502 82.8851 273.302 82.8671L273.301 82.8671C272.664 82.8111 271.641 82.7755 270.625 82.9731C269.613 83.1699 268.565 83.6064 267.937 84.5304C267.306 85.4566 266.161 87.6661 265.034 89.9357C263.904 92.2131 262.783 94.5733 262.198 95.8161L262.198 95.8162C262.087 96.0521 261.914 96.2537 261.697 96.3997C261.48 96.5456 261.227 96.6303 260.966 96.6447C257.192 96.8488 252.739 96.1184 250.463 95.6756L250.462 95.6755C250.107 95.6073 249.79 95.4081 249.576 95.1181C249.361 94.8283 249.264 94.4689 249.304 94.1115C249.709 90.6572 250.693 86.9011 251.221 85.0445L251.221 85.0432C251.272 84.8602 251.359 84.689 251.477 84.5396C251.595 84.3901 251.741 84.2654 251.908 84.1726C252.075 84.0799 252.258 84.0209 252.448 83.9993C252.638 83.9777 252.83 83.9937 253.013 84.0464M262.645 86.7713L262.444 86.6243L262.645 86.7712C262.645 86.7713 262.645 86.7713 262.645 86.7713ZM262.645 86.7713C262.385 87.1282 261.778 87.8642 260.947 88.2536C260.526 88.4507 260.041 88.5623 259.513 88.484C258.985 88.4056 258.437 88.1401 257.886 87.6221M257.886 87.6221C257.886 87.6221 257.886 87.6221 257.886 87.6221L258.056 87.4419L257.886 87.6221ZM257.886 87.6221C256.998 86.7871 256.149 86.0006 255.331 85.3661C254.512 84.7304 253.741 84.2614 253.013 84.0464M253.013 84.0464C253.013 84.0465 253.014 84.0465 253.014 84.0466L253.083 83.8064L253.012 84.0461C253.013 84.0462 253.013 84.0463 253.013 84.0464Z" fill="#3A526A" stroke="#181518" stroke-width="0.5"/>
<path d="M267.072 88.1367C267.078 88.0977 267.086 88.0496 267.095 87.9933C267.124 87.8252 267.167 87.5841 267.227 87.2937C267.348 86.7121 267.535 85.9361 267.802 85.1536C268.069 84.3685 268.413 83.5904 268.84 82.9961C269.269 82.3988 269.757 82.0229 270.307 81.9636C271.546 81.8298 272.722 82.2798 273.282 83.1189C273.827 83.9349 273.853 85.2218 272.579 86.9103C271.782 87.9663 271.032 88.5461 270.369 88.8357C269.709 89.1238 269.12 89.1311 268.625 89.017C268.127 88.902 267.718 88.6616 267.431 88.4463C267.288 88.3392 267.178 88.2396 267.103 88.1677C267.092 88.1567 267.082 88.1463 267.072 88.1367Z" fill="white" stroke="#181518" stroke-width="0.5"/>
</g>
</g>
<path d="M507.734 278H2.3949C1.07217 278 0 278.477 0 279.066C0 279.653 1.07217 280.133 2.3949 280.133H507.734C509.054 280.133 510.126 279.653 510.126 279.066C510.126 278.477 509.054 278 507.734 278Z" fill="#181518"/>
<defs>
<clipPath id="clip0_979_644">
<rect width="492" height="278" fill="white" transform="translate(11)"/>
</clipPath>
<clipPath id="clip1_979_644">
<rect width="116" height="222" fill="white" transform="translate(193 56)"/>
</clipPath>
</defs>
</svg>
