<svg width="524" height="307" viewBox="0 0 524 307" fill="none" xmlns="http://www.w3.org/2000/svg">
<g clip-path="url(#clip0_509_414)">
<path d="M129.851 156.45H58.0264V109.198C58.0264 101.18 61.2148 93.4893 66.8902 87.8194C72.5656 82.1494 80.2631 78.9641 88.2894 78.9641H129.851V156.45Z" fill="#181518"/>
<path d="M22.5727 176.606L22.5733 176.605L47.0114 107.263L47.0115 107.263C48.8294 102.103 54.0096 98.584 59.8817 98.584H140.99V265.208H23.5604L21.8922 180.767C21.8922 180.767 21.8922 180.767 21.8922 180.767C21.8665 179.35 22.097 177.941 22.5727 176.606Z" fill="#5BC2BA" stroke="#181518"/>
<path d="M28.7638 265.201H21.8745L21.8745 237.399H28.7637C29.8835 237.399 30.9574 237.843 31.749 238.634C32.5407 239.425 32.9854 240.498 32.9854 241.616V260.997C32.9818 262.113 32.5357 263.182 31.7446 263.97C30.9533 264.758 29.8813 265.201 28.7638 265.201Z" fill="white" stroke="#181518"/>
<path d="M12.4918 146.413H8.74219V133.301C8.74782 128.119 10.8103 123.152 14.4773 119.487C18.1443 115.823 23.1163 113.762 28.3026 113.755H60.1938V117.505H28.3026C24.1111 117.511 20.0928 119.177 17.1289 122.138C14.165 125.099 12.4974 129.113 12.4918 133.301V146.413Z" fill="#181518"/>
<path d="M7.93688 173.458H14.0987C18.0955 173.458 21.3354 170.221 21.3354 166.228L21.3354 145.347C21.3354 141.354 18.0955 138.117 14.0987 138.117H7.93688C3.94015 138.117 0.700167 141.354 0.700167 145.347L0.700167 166.228C0.700167 170.221 3.94015 173.458 7.93688 173.458Z" fill="#181518"/>
<path d="M17.969 166.228V145.347C17.969 143.213 16.2379 141.484 14.1023 141.484H7.94045C5.80494 141.484 4.0738 143.213 4.0738 145.347L4.0738 166.228C4.0738 168.362 5.80494 170.091 7.94045 170.091H14.1023C16.2379 170.091 17.969 168.362 17.969 166.228Z" fill="white"/>
<path d="M115.697 119.068V119.068V169.747C115.697 171.45 115.02 173.083 113.815 174.287C112.611 175.491 110.976 176.168 109.272 176.169H47.5875C46.583 176.166 45.593 175.929 44.6969 175.475C43.8009 175.021 43.0239 174.364 42.428 173.556C41.8322 172.749 41.4342 171.812 41.2659 170.823C41.0976 169.834 41.1637 168.819 41.4589 167.86L41.459 167.86L57.0109 117.181C57.4143 115.867 58.2289 114.718 59.335 113.901L59.038 113.499L59.335 113.901C60.4411 113.084 61.7804 112.643 63.1559 112.643H109.272C110.117 112.643 110.953 112.809 111.732 113.132C112.512 113.455 113.221 113.929 113.818 114.525C114.414 115.122 114.887 115.83 115.21 116.61C115.532 117.389 115.698 118.224 115.697 119.068Z" fill="white" stroke="#181518"/>
<path d="M49.4771 139.988L40.9634 167.72C40.6462 168.755 40.5761 169.849 40.7589 170.915C40.9417 171.982 41.3722 172.991 42.0159 173.861C42.6596 174.731 43.4985 175.438 44.4653 175.926C45.432 176.413 46.4998 176.668 47.5828 176.669H109.272C111.109 176.668 112.87 175.938 114.169 174.64C115.467 173.342 116.197 171.582 116.197 169.747V139.978L49.4771 139.988Z" fill="#181518"/>
<path d="M83.9961 297.051C102.156 291.556 112.419 272.394 106.919 254.251C101.419 236.109 82.2384 225.856 64.0784 231.351C45.9184 236.845 35.6555 256.007 41.1557 274.15C46.6558 292.292 65.8361 302.545 83.9961 297.051Z" fill="#181518"/>
<path d="M416.609 263.713C416.609 282.112 402.093 297.005 384.214 297.005C366.335 297.005 351.819 282.112 351.819 263.713C351.819 245.313 366.335 230.421 384.214 230.421C402.093 230.421 416.609 245.313 416.609 263.713Z" fill="#181518" stroke="#181518"/>
<path d="M479.661 218.154L139.535 218.154C134.462 218.154 130.351 214.046 130.351 208.979V9.67499C130.351 4.60815 134.462 0.499832 139.535 0.499832L479.661 0.499832C484.734 0.499832 488.845 4.60815 488.845 9.67499V208.979C488.845 214.046 484.734 218.154 479.661 218.154Z" fill="white" stroke="#181518"/>
<path d="M479.839 209.139C479.792 209.186 479.729 209.213 479.662 209.213H310.29V9.42383H479.663C479.729 9.42437 479.793 9.45106 479.84 9.49803C479.887 9.54518 479.913 9.60891 479.913 9.6752V208.963C479.913 209.029 479.886 209.092 479.839 209.139Z" fill="white" stroke="#181518"/>
<path d="M479.913 9.37142V61.6549C479.842 61.6634 479.758 61.6689 479.665 61.6689H310.29V9.35645H479.665C479.756 9.35645 479.841 9.36231 479.913 9.37142Z" fill="white" stroke="#181518"/>
<path d="M139.539 0.5H300.357V218.165H139.539C137.103 218.165 134.767 217.198 133.044 215.478C131.322 213.757 130.354 211.423 130.354 208.99V9.67515C130.354 7.24191 131.322 4.90821 133.044 3.1875C134.767 1.46678 137.103 0.5 139.539 0.5Z" fill="white" stroke="#181518"/>
<path d="M462.243 149.986V209.227H390.876V149.986H462.243Z" fill="#3A526A" stroke="#181518"/>
<path d="M400.6 138.206V209.23H310.29V138.206H400.6Z" fill="#3A526A" stroke="#181518"/>
<path d="M387.198 69.6578V137.206H310.29V69.6578L387.198 69.6578Z" fill="#3A526A" stroke="#181518"/>
<path d="M465.461 265.198L142.6 265.198C140.346 265.198 138.184 264.303 136.59 262.711C134.996 261.118 134.1 258.958 134.1 256.707V227.646C134.1 225.394 134.996 223.234 136.59 221.642C138.184 220.049 140.346 219.155 142.6 219.155L465.461 219.155V265.198Z" fill="white" stroke="#181518"/>
<path d="M462.247 225.498V259.57H306.182V225.498L462.247 225.498Z" fill="white" stroke="#181518"/>
<path d="M355.739 238.792V251.716H311.357V238.792H355.739Z" fill="white" stroke="#181518"/>
<path d="M337.74 238.792V251.716H311.357V238.792H337.74Z" fill="#3A526A" stroke="#181518"/>
<path d="M452.115 238.792V251.716H407.733V238.792H452.115Z" fill="white" stroke="#181518"/>
<path d="M452.112 238.792V251.716H432.562V238.792H452.112Z" fill="#3A526A" stroke="#181518"/>
<path d="M309.098 263.713C309.098 282.112 294.582 297.005 276.703 297.005C258.824 297.005 244.308 282.112 244.308 263.713C244.308 245.313 258.824 230.421 276.703 230.421C294.582 230.421 309.098 245.313 309.098 263.713Z" fill="#181518" stroke="#181518"/>
<path d="M298.942 262.784C298.942 282.309 284.399 298.064 266.547 298.064C248.694 298.064 234.151 282.309 234.151 262.784C234.151 243.259 248.694 227.504 266.547 227.504C284.399 227.504 298.942 243.259 298.942 262.784Z" fill="#181518" stroke="#181518"/>
<path d="M68.2997 298.565C86.4671 298.565 101.195 282.909 101.195 263.596C101.195 244.283 86.4671 228.627 68.2997 228.627C50.1322 228.627 35.4045 244.283 35.4045 263.596C35.4045 282.909 50.1322 298.565 68.2997 298.565Z" fill="#181518"/>
<path d="M52.127 262.781C52.127 272.499 59.3672 280.377 68.3032 280.377C77.2391 280.377 84.4758 272.499 84.4758 262.781C84.4758 253.063 77.2355 245.188 68.3032 245.188C59.3708 245.188 52.127 253.067 52.127 262.781Z" fill="white"/>
<path d="M250.374 262.781C250.374 272.499 257.614 280.377 266.55 280.377C275.486 280.377 282.723 272.499 282.723 262.781C282.723 253.063 275.483 245.188 266.55 245.188C257.618 245.188 250.374 253.067 250.374 262.781Z" fill="white"/>
<path d="M408.379 48.3364H377.811C377.811 50.4193 378.639 52.417 380.114 53.8898C381.588 55.3626 383.587 56.19 385.672 56.19H400.515C402.6 56.19 404.599 55.3626 406.073 53.8898C407.548 52.417 408.376 50.4193 408.376 48.3364H408.379Z" fill="#181518"/>
<path d="M217.835 285.428C217.711 285.797 217.534 286.65 217.327 287.662C217.298 287.803 217.269 287.947 217.239 288.094C217.047 289.035 216.829 290.108 216.595 291.152C216.323 292.363 216.034 293.516 215.748 294.364C215.604 294.791 215.468 295.117 215.346 295.33C215.3 295.411 215.263 295.463 215.236 295.494C213.345 295.598 211.003 295.689 209.037 295.66C208.038 295.645 207.149 295.599 206.472 295.51C206.132 295.466 205.86 295.412 205.659 295.352C205.452 295.29 205.384 295.239 205.378 295.234C205.377 295.234 205.377 295.234 205.377 295.234L205.376 295.233C205.349 295.205 205.334 295.184 205.326 295.17C205.329 295.165 205.333 295.158 205.339 295.15C205.43 295.027 205.659 294.862 206.053 294.653C206.285 294.53 206.526 294.415 206.78 294.294C206.949 294.213 207.124 294.13 207.305 294.04C207.726 293.83 208.171 293.589 208.488 293.307C208.63 293.181 208.726 293.015 208.795 292.863C208.867 292.704 208.927 292.52 208.979 292.322C209.083 291.926 209.166 291.43 209.233 290.879C209.366 289.774 209.443 288.391 209.484 287.02C209.566 284.281 209.51 281.532 209.478 281.043C209.465 280.832 209.387 280.622 209.3 280.441C209.209 280.252 209.09 280.054 208.957 279.857C208.691 279.464 208.35 279.041 208.019 278.659C207.686 278.274 207.357 277.921 207.111 277.664C207.081 277.633 207.052 277.603 207.025 277.575L212.38 271.312C212.595 271.61 212.893 272.008 213.25 272.445C213.992 273.353 215.017 274.464 216.09 275.167C217.046 275.8 218.042 276.478 218.832 277.076C219.227 277.376 219.563 277.65 219.813 277.883C220.082 278.133 220.195 278.286 220.22 278.344L220.22 278.344C220.252 278.416 220.278 278.544 220.27 278.75C220.263 278.951 220.225 279.197 220.157 279.483C220.021 280.056 219.778 280.736 219.488 281.457C219.25 282.048 218.986 282.651 218.733 283.23C218.679 283.354 218.625 283.478 218.572 283.6C218.276 284.279 218.003 284.922 217.835 285.428ZM217.835 285.428C217.835 285.429 217.834 285.429 217.834 285.429L218.309 285.586L217.835 285.428C217.835 285.428 217.835 285.428 217.835 285.428ZM215.205 295.525C215.205 295.525 215.206 295.525 215.208 295.523C215.206 295.525 215.205 295.525 215.205 295.525ZM205.317 295.152C205.317 295.152 205.317 295.153 205.317 295.154L205.317 295.152ZM205.317 295.186C205.317 295.187 205.317 295.187 205.317 295.187L205.317 295.186Z" fill="white" stroke="#181518"/>
<path d="M162.97 290.867L162.97 290.867L162.972 290.866C163.145 290.788 163.324 290.63 163.472 290.477C163.636 290.308 163.814 290.091 163.983 289.84C164.316 289.346 164.642 288.676 164.706 287.955L164.706 287.955C164.798 286.893 164.422 285.745 164.059 284.906C163.948 284.649 163.835 284.414 163.731 284.212L171.573 284.337L171.818 285.037L172.61 287.303C172.898 288.127 173.186 288.951 173.402 289.571L173.664 290.321L173.737 290.532L173.749 290.568C173.813 290.944 173.933 291.494 174.061 292.079C174.118 292.34 174.177 292.608 174.233 292.871C174.427 293.783 174.58 294.607 174.58 295.017C174.58 295.141 174.548 295.212 174.51 295.261C174.466 295.316 174.385 295.381 174.232 295.438C173.913 295.556 173.398 295.593 172.706 295.525C171.339 295.39 169.515 294.869 167.775 294.177C166.033 293.485 164.435 292.646 163.502 291.906C163.016 291.52 162.803 291.231 162.756 291.069C162.747 291.038 162.748 291.024 162.748 291.021C162.748 291.021 162.748 291.02 162.748 291.02C162.748 291.019 162.748 291.019 162.751 291.015C162.758 291.003 162.802 290.942 162.97 290.867Z" fill="white" stroke="#181518"/>
<path d="M150.032 158.8L144.285 173.667C144.285 173.667 140.536 209.142 142.721 230.371C143.632 239.252 163.395 286.799 163.395 286.799L173.211 285.381L160.064 229.077L164.903 207.587L171.749 165.027L150.032 158.8Z" fill="#181518"/>
<path d="M177.099 159.576L182.026 176.13L189.525 226.101L214.879 272.835C214.879 272.835 211.065 278.683 206.971 279.604L170.997 232.359L151.486 173.21L152.171 160.072L177.099 159.576Z" fill="#181518"/>
<path d="M120.872 174.535C124.42 173.118 124.53 173.766 124.98 173.571C125.516 173.341 129.78 166.806 129.78 166.806C129.78 166.806 142.476 147.626 143.125 146.566L146.992 122.97L159.149 121.687C159.149 121.687 154.264 147.236 153.778 148.522C153.292 149.809 133.122 173.685 131.412 175.854C131.412 175.854 130.323 179.199 129.571 181.276C128.819 183.353 127.187 184.976 126.885 185.529C126.01 186.876 124.97 188.108 123.788 189.197C122.11 190.76 122.987 188.488 122.987 188.488C122.987 188.488 125.573 185.022 125.264 184.862C125.03 184.738 123.728 186.712 121.89 188.463C121.419 188.913 120.95 189.353 120.518 189.757C119.379 190.82 118.389 190.405 119.421 189.108C119.873 188.513 120.369 187.953 120.904 187.432C121.382 186.918 121.815 186.364 122.199 185.777C122.994 184.788 123.586 184.076 123.526 184.065C123.465 184.054 123.469 183.742 122.955 184.203C122.334 184.756 121.277 186.234 120.301 186.978C119.748 187.4 118.645 188.35 118.645 188.35C118.645 188.35 116.686 189.696 116.584 189.604C116.019 189.101 117.144 187.733 117.971 187.262C118.434 186.692 118.957 186.174 119.531 185.717C119.531 185.717 121.493 183.207 121.145 182.917C120.858 182.679 114.998 187.761 114.469 187.219C114.036 186.776 115.729 185.167 115.729 185.167C115.729 185.167 116.828 184.271 117.172 183.948C117.573 183.565 118.687 182.328 118.687 182.328C118.687 182.328 122.366 177.845 122.015 177.597C121.663 177.349 120.507 177.087 120.181 177.285C119.854 177.484 119.471 178.161 119.116 178.349C118.924 178.457 118.699 178.494 118.481 178.455C118.264 178.415 118.067 178.301 117.924 178.132C117.651 177.75 118.847 176.187 118.847 176.187C118.847 176.187 119.847 174.943 120.872 174.535Z" fill="white" stroke="#181518"/>
<path d="M158.136 129.81C158.106 130.389 158.082 130.859 158.064 131.186L145.044 129.841C145.046 129.746 145.048 129.637 145.05 129.515C145.061 129.012 145.083 128.283 145.128 127.38C145.22 125.574 145.406 123.076 145.786 120.31C146.548 114.752 148.079 108.206 151.116 103.971C152.748 101.701 155.116 100.811 157.276 100.204C157.353 100.383 157.441 100.667 157.534 101.059C157.731 101.894 157.925 103.114 158.096 104.567C158.436 107.466 158.677 111.235 158.677 114.581C158.677 117.338 158.517 121.617 158.357 125.214C158.276 127.011 158.196 128.635 158.136 129.81Z" fill="#5BC2BA" stroke="#181518"/>
<path d="M208.666 292.54L208.666 292.54C208.912 292.454 209.132 292.282 209.322 292.093C209.518 291.899 209.714 291.653 209.909 291.373C210.3 290.813 210.714 290.074 211.136 289.23C211.981 287.54 212.882 285.374 213.707 283.246C214.532 281.116 215.284 279.012 215.83 277.442C216.103 276.656 216.324 276.004 216.477 275.547C216.509 275.455 216.537 275.37 216.562 275.294C216.643 275.319 216.732 275.347 216.829 275.377C217.27 275.516 217.861 275.708 218.462 275.922C219.065 276.137 219.667 276.37 220.136 276.59C220.372 276.701 220.561 276.803 220.696 276.892C220.757 276.932 220.796 276.962 220.82 276.982C220.816 277.046 220.805 277.138 220.781 277.263C220.731 277.526 220.639 277.879 220.513 278.299C220.262 279.135 219.891 280.192 219.506 281.234C219.121 282.275 218.725 283.293 218.425 284.053C218.274 284.432 218.148 284.746 218.06 284.966C218.016 285.075 217.981 285.161 217.957 285.219L217.93 285.286L217.923 285.303L217.921 285.307L217.921 285.308L217.921 285.308L218.384 285.498L217.921 285.308L217.902 285.355L217.892 285.405C217.584 287.04 217.041 289.716 216.573 291.987C216.34 293.121 216.125 294.154 215.969 294.902C215.9 295.236 215.842 295.513 215.799 295.718H205.208V295.718L205.198 295.719C205.069 295.721 204.941 295.695 204.822 295.642L204.618 296.099L204.822 295.642C204.704 295.589 204.599 295.511 204.515 295.413C204.431 295.315 204.369 295.199 204.335 295.075C204.301 294.95 204.295 294.82 204.317 294.692L204.318 294.69C204.318 294.687 204.319 294.684 204.32 294.682L204.321 294.679C204.402 294.488 204.621 294.253 205.008 293.998C205.383 293.752 205.854 293.525 206.346 293.325C207.064 293.033 207.746 292.825 208.214 292.683C208.404 292.625 208.558 292.578 208.666 292.54ZM220.82 276.921C220.82 276.921 220.82 276.921 220.82 276.924L220.82 276.921Z" fill="#3A526A" stroke="#181518"/>
<path d="M173.892 291.041L175.31 295.687H150.449C150.451 295.66 150.457 295.635 150.465 295.611C150.5 295.504 150.6 295.353 150.835 295.162C151.309 294.777 152.151 294.375 153.335 293.935C154.643 293.449 156.266 292.95 158.108 292.385C159.557 291.94 161.141 291.453 162.813 290.898L162.828 290.903C162.935 290.933 163.089 290.977 163.279 291.031C163.661 291.139 164.19 291.285 164.778 291.439C165.948 291.746 167.383 292.095 168.37 292.234C168.926 292.312 169.587 292.25 170.236 292.131C170.894 292.011 171.576 291.826 172.19 291.635C172.804 291.444 173.357 291.244 173.755 291.093C173.803 291.075 173.849 291.057 173.892 291.041Z" fill="#3A526A" stroke="#181518"/>
<path d="M184.376 101.744L184.377 101.744C185.43 102.516 187.643 104.757 189.63 106.85C190.614 107.887 191.531 108.874 192.201 109.603C192.536 109.967 192.81 110.266 192.999 110.474C193.034 110.512 193.066 110.547 193.095 110.579L193.034 110.756C192.93 111.055 192.778 111.493 192.585 112.055C192.199 113.177 191.648 114.788 190.988 116.743C189.669 120.654 187.916 125.944 186.18 131.461C184.445 136.976 182.724 142.722 181.472 147.544C180.846 149.954 180.335 152.139 179.998 153.952C179.664 155.751 179.491 157.228 179.566 158.2C179.843 161.816 180.37 166.295 180.826 169.865C181.054 171.651 181.265 173.212 181.419 174.326C181.49 174.845 181.55 175.267 181.593 175.57C181.415 175.58 181.196 175.592 180.938 175.605C180.168 175.644 179.057 175.696 177.69 175.745C174.957 175.843 171.205 175.931 167.129 175.891C163.052 175.852 158.659 175.684 154.64 175.271C150.814 174.879 147.362 174.267 144.851 173.35C144.868 173.264 144.888 173.165 144.91 173.054C145 172.599 145.129 171.943 145.283 171.144C145.591 169.544 146.003 167.367 146.415 165.055C147.233 160.457 148.067 155.252 148.067 153.055C148.067 150.929 148.527 139.159 149.152 127.628C149.465 121.865 149.818 116.17 150.175 111.778C150.354 109.581 150.533 107.715 150.707 106.332C150.795 105.639 150.88 105.074 150.963 104.652C151.004 104.441 151.043 104.272 151.08 104.144C151.119 104.007 151.147 103.947 151.155 103.933C152.349 101.895 154.796 100.645 159.811 99.5615C162.255 99.0335 166.102 98.9825 169.381 99.0702C171.011 99.1139 172.486 99.1913 173.553 99.2578C174.087 99.2911 174.518 99.3216 174.816 99.3438C174.965 99.3549 175.08 99.3638 175.158 99.3701L175.246 99.3772L175.262 99.3785L175.269 99.3795L175.33 99.3882C175.384 99.3959 175.464 99.4075 175.566 99.4228C175.77 99.4535 176.065 99.4988 176.425 99.5578C177.145 99.6757 178.124 99.8477 179.163 100.064C180.203 100.28 181.295 100.539 182.242 100.831C183.207 101.127 183.963 101.44 184.376 101.744Z" fill="#5BC2BA" stroke="#181518"/>
<path d="M165.767 103.947L165.767 103.947C164.356 103.51 163.802 102.311 163.613 101.086C163.52 100.48 163.523 99.8972 163.551 99.4631C163.565 99.2471 163.585 99.0705 163.601 98.9493C163.609 98.8888 163.616 98.8423 163.621 98.8118L163.625 98.7867L163.64 98.7292C163.654 98.6775 163.673 98.6018 163.698 98.5044C163.748 98.3098 163.818 98.0286 163.9 97.6808C164.064 96.9857 164.277 96.0227 164.473 94.9517C164.861 92.8343 165.199 90.2105 164.91 88.4181C164.861 88.1119 164.927 87.9197 165.036 87.7791C165.158 87.6218 165.38 87.4733 165.732 87.3556C166.444 87.1178 167.491 87.0708 168.623 87.1352C169.74 87.1988 170.88 87.3665 171.745 87.5196C172.176 87.596 172.537 87.6684 172.789 87.7215C172.811 87.7262 172.833 87.7307 172.853 87.7351L174.6 99.1523C174.575 99.179 174.548 99.2086 174.518 99.241C174.364 99.4079 174.137 99.6461 173.853 99.9287C173.284 100.495 172.486 101.234 171.569 101.934C170.65 102.635 169.627 103.283 168.609 103.681C167.587 104.08 166.617 104.21 165.767 103.947Z" fill="white" stroke="#181518"/>
<path d="M174.413 70.6343C174.42 70.6407 174.426 70.6467 174.431 70.6521C174.451 70.7281 174.478 70.8479 174.508 71.0137C174.575 71.3735 174.654 71.906 174.732 72.5668C174.887 73.8871 175.032 75.6984 175.06 77.6289C175.087 79.5619 174.996 81.5983 174.683 83.3753C174.367 85.1716 173.839 86.6184 173.055 87.4536C171.367 89.254 168.859 90.465 166.475 90.8606C164.064 91.2606 161.95 90.8073 160.882 89.5213C160.289 88.8077 159.799 87.3832 159.515 85.4895C159.235 83.6219 159.168 81.3829 159.355 79.12C159.542 76.8563 159.983 74.5883 160.707 72.6573C161.434 70.7183 162.429 69.169 163.691 68.2759C166.23 66.4789 168.871 67.0281 170.959 68.095C172.001 68.6276 172.883 69.28 173.506 69.802C173.816 70.0623 174.061 70.2885 174.226 70.4484C174.309 70.5284 174.372 70.5917 174.413 70.6343Z" fill="white" stroke="#181518"/>
<path d="M165.513 60.5104C168.593 61.1664 171.396 62.754 173.541 65.0573C175.474 65.2842 178.103 66.3438 180.816 70.8022C184.155 76.2847 181.689 82.3592 177.805 85.3326C173.92 88.306 173.973 91.7472 173.973 91.7472L173.36 89.9752C172.897 88.6291 172.731 87.1989 172.874 85.7827C172.947 84.9135 173.159 84.0615 173.502 83.2593C174.438 81.2676 171.494 79.9457 170.664 78.2977C170.029 77.0219 169.997 74.1051 168.996 72L167.801 70.391C167.801 70.391 165.045 68.2647 162.349 68.86C159.653 69.4554 160.046 59.4046 165.513 60.5104Z" fill="#3A526A" stroke="#181518"/>
<path d="M166.378 192.985V145.921H220.839V192.985H166.378Z" fill="#3A526A" stroke="#181518"/>
<path d="M199.624 173.75L199.624 173.751L199.625 173.766L199.629 173.83L199.642 174.072C199.654 174.28 199.67 174.578 199.688 174.938C199.725 175.657 199.771 176.621 199.807 177.604C199.844 178.585 199.87 179.588 199.868 180.383C199.868 180.779 199.86 181.131 199.841 181.406C199.832 181.542 199.819 181.668 199.802 181.775C199.789 181.86 199.762 182.003 199.693 182.123L199.692 182.125C199.599 182.287 199.481 182.423 199.36 182.561C199.348 182.575 199.335 182.59 199.321 182.606C199.202 182.741 199.057 182.907 198.865 183.149C198.437 183.687 197.77 184.608 196.71 186.349L196.71 186.349C196.452 186.771 196.293 187.374 196.202 187.912C196.158 188.173 196.132 188.406 196.117 188.572C196.109 188.655 196.104 188.721 196.102 188.766C196.1 188.788 196.099 188.805 196.099 188.816L196.098 188.826L196.098 188.826L196.098 188.827L196.098 188.828L196.098 188.83M199.624 173.75L195.598 188.81C196.098 188.83 196.098 188.83 196.098 188.83M199.624 173.75L199.624 173.738L199.622 173.685L199.615 173.48L199.587 172.698L199.489 169.9C199.408 167.578 199.298 164.468 199.185 161.317C198.96 155.024 198.723 148.541 198.676 147.867L198.669 147.771L198.628 147.685L187.857 125.365L196.526 117.205L196.723 117.641C197.031 118.327 197.472 119.308 198.002 120.489C199.062 122.853 200.479 126.018 201.908 129.228C203.337 132.438 204.776 135.69 205.881 138.229C206.434 139.498 206.902 140.587 207.244 141.402C207.594 142.24 207.79 142.742 207.825 142.874C207.824 142.872 207.824 142.872 207.825 142.876C207.826 142.888 207.831 142.925 207.835 143.001C207.84 143.093 207.843 143.218 207.844 143.375C207.845 143.688 207.836 144.113 207.818 144.637C207.781 145.684 207.71 147.11 207.612 148.794C207.418 152.162 207.123 156.552 206.812 160.992C206.546 164.792 206.268 168.632 206.032 171.896C205.717 176.251 205.476 179.582 205.436 180.427L205.432 180.514L205.458 180.597L205.936 180.45L205.458 180.597L205.458 180.597L205.458 180.598L205.458 180.6L205.461 180.607L205.47 180.637L205.506 180.754C205.537 180.855 205.582 181.003 205.638 181.187C205.75 181.555 205.907 182.07 206.082 182.655C206.433 183.826 206.86 185.275 207.167 186.398C207.456 187.461 207.511 188.581 207.499 189.537C207.494 189.95 207.477 190.326 207.462 190.655C207.46 190.706 207.458 190.756 207.456 190.804C207.441 191.137 207.428 191.456 207.452 191.675C207.49 192.296 207.489 192.919 207.451 193.54L207.451 193.543C207.439 193.768 207.355 193.982 207.21 194.155L207.594 194.476L207.21 194.155C207.067 194.326 206.873 194.447 206.656 194.5L206.373 194.558L206.292 194.575L206.221 194.617C206.172 194.646 206.065 194.685 205.888 194.712C205.719 194.738 205.517 194.749 205.301 194.745C204.862 194.736 204.422 194.665 204.151 194.574L204.011 194.527L203.868 194.563C203.624 194.626 203.291 194.704 202.949 194.738C202.639 194.769 202.368 194.757 202.166 194.696C202.04 194.587 201.903 194.505 201.751 194.457C201.559 194.398 201.389 194.41 201.259 194.433C201.198 194.444 201.142 194.459 201.101 194.469C201.056 194.481 201.028 194.488 201 194.494C200.951 194.504 200.928 194.503 200.908 194.5L200.908 194.5L200.899 194.498C200.552 194.44 200.239 194.258 200.018 193.986C199.798 193.715 199.685 193.374 199.698 193.025C199.775 191.794 199.815 190.531 199.802 189.569C199.796 189.09 199.776 188.671 199.738 188.365C199.719 188.216 199.693 188.066 199.651 187.943C199.631 187.884 199.597 187.797 199.534 187.715C199.473 187.635 199.327 187.488 199.089 187.488H199.079L199.069 187.489C198.888 187.496 198.682 187.548 198.497 187.61C198.302 187.675 198.093 187.761 197.895 187.86C197.698 187.958 197.5 188.073 197.334 188.198C197.187 188.309 196.993 188.479 196.9 188.704C196.835 188.86 196.803 189.036 196.784 189.186C196.764 189.338 196.753 189.502 196.743 189.649L196.742 189.656C196.731 189.812 196.721 189.948 196.706 190.068C196.69 190.192 196.672 190.261 196.659 190.293C196.614 190.398 196.534 190.484 196.432 190.536C196.372 190.567 196.307 190.585 196.24 190.59M199.624 173.75L196.24 190.59M196.098 188.83L196.098 188.831L196.098 188.846C196.097 188.861 196.097 188.882 196.096 188.909C196.095 188.964 196.095 189.043 196.095 189.139C196.096 189.332 196.102 189.587 196.121 189.843C196.141 190.105 196.173 190.346 196.219 190.52C196.226 190.547 196.233 190.57 196.24 190.59M196.098 188.83L196.24 190.59M196.278 190.679C196.278 190.679 196.277 190.678 196.276 190.676C196.277 190.678 196.278 190.679 196.278 190.679Z" fill="white" stroke="#181518"/>
<path d="M182.709 123.383L182.709 123.383C182.05 121.994 181.589 119.844 181.327 117.371C181.066 114.91 181.006 112.177 181.123 109.648C181.241 107.114 181.537 104.814 181.977 103.21C182.198 102.402 182.445 101.814 182.695 101.463C182.947 101.11 183.095 101.124 183.164 101.143L183.166 101.143C183.898 101.34 184.761 101.838 185.727 102.607C186.686 103.371 187.715 104.377 188.776 105.547C190.899 107.887 193.123 110.851 195.149 113.772C197.173 116.691 198.992 119.555 200.306 121.691C200.962 122.759 201.492 123.644 201.857 124.262C201.999 124.5 202.115 124.699 202.205 124.853L190.512 133.969C190.365 133.821 190.17 133.623 189.937 133.378C189.387 132.802 188.624 131.974 187.777 130.966C186.078 128.946 184.055 126.225 182.709 123.383Z" fill="#5BC2BA" stroke="#181518"/>
<path d="M53.1629 200.108H37.5435V193.981H59.7778C59.7249 194.68 59.5612 195.368 59.2918 196.017C58.9585 196.821 58.4699 197.552 57.8539 198.167C57.2379 198.783 56.5066 199.271 55.7017 199.604C54.8968 199.937 54.0341 200.108 53.1629 200.108Z" fill="#181518" stroke="#181518"/>
<path d="M521.608 296.432H16.2687C14.946 296.432 13.8738 296.909 13.8738 297.498C13.8738 298.085 14.946 298.565 16.2687 298.565H521.608C522.928 298.565 524 298.085 524 297.498C524 296.909 522.928 296.432 521.608 296.432Z" fill="#181518"/>
<path d="M166.378 121.183V116.19H175.854V121.183H166.378Z" fill="white" stroke="#181518"/>
</g>
<defs>
<clipPath id="clip0_509_414">
<rect width="524" height="307" fill="white"/>
</clipPath>
</defs>
</svg>
